<svg width="60" height="60" viewBox="0 0 60 60" fill="none" xmlns="http://www.w3.org/2000/svg">
<g clip-path="url(#clip0_13324_34314)">
<path d="M53.4375 5.6251C53.4375 5.37646 53.3387 5.138 53.1629 4.96218C52.9871 4.78637 52.7486 4.6876 52.5 4.6876H25.5122C25.2955 4.32321 25.1171 3.93741 24.9797 3.53635L24.3234 1.57885C24.2618 1.39128 24.1425 1.22797 23.9826 1.11219C23.8226 0.996414 23.6302 0.934082 23.4328 0.934082C23.2354 0.934082 23.043 0.996414 22.8831 1.11219C22.7231 1.22797 22.6038 1.39128 22.5422 1.57885L21.8859 3.53635C21.752 3.9372 21.5766 4.32303 21.3628 4.6876H7.5C7.25136 4.6876 7.0129 4.78637 6.83709 4.96218C6.66127 5.138 6.5625 5.37646 6.5625 5.6251V8.4376H0.9375V10.3126H6.5625V12.1876H0.9375V14.0626H6.5625V15.9376H0.9375V17.8126H6.5625V19.6876H0.9375V21.5626H6.5625V23.4376H0.9375V25.3126H6.5625V27.1876H0.9375V29.0626H6.5625V30.9376H0.9375V32.8126H6.5625V34.6876H0.9375V36.5626H6.5625V39.3751C6.5625 39.6237 6.66127 39.8622 6.83709 40.038C7.0129 40.2138 7.25136 40.3126 7.5 40.3126H27.1875V58.1251C27.1875 58.3737 27.2863 58.6122 27.4621 58.788C27.6379 58.9638 27.8764 59.0626 28.125 59.0626H31.875C32.1236 59.0626 32.3621 58.9638 32.5379 58.788C32.7137 58.6122 32.8125 58.3737 32.8125 58.1251V40.3126H52.5C52.7486 40.3126 52.9871 40.2138 53.1629 40.038C53.3387 39.8622 53.4375 39.6237 53.4375 39.3751V36.5626H59.0625V34.6876H53.4375V32.8126H59.0625V30.9376H53.4375V29.0626H59.0625V27.1876H53.4375V25.3126H59.0625V23.4376H53.4375V21.5626H59.0625V19.6876H53.4375V17.8126H59.0625V15.9376H53.4375V14.0626H59.0625V12.1876H53.4375V10.3126H59.0625V8.4376H53.4375V5.6251ZM23.4375 4.75322C24.1095 6.32925 25.2743 7.645 26.7572 8.50322C25.3038 9.43263 24.1508 10.7631 23.4375 12.3338C22.7237 10.7642 21.5707 9.43469 20.1178 8.50603C21.6012 7.64709 22.766 6.3303 23.4375 4.75322ZM25.3125 30.0001V31.8751H18.75V24.3751H38.3775L38.4938 24.6948C38.5594 24.8758 38.6793 25.0321 38.8369 25.1426C38.9946 25.2532 39.1825 25.3124 39.375 25.3124C39.5675 25.3124 39.7554 25.2532 39.9131 25.1426C40.0707 25.0321 40.1906 24.8758 40.2562 24.6948L40.3725 24.376H41.25V31.876H34.6875V30.0001C34.6875 29.7515 34.5887 29.513 34.4129 29.3372C34.2371 29.1614 33.9986 29.0626 33.75 29.0626H26.25C26.0014 29.0626 25.7629 29.1614 25.5871 29.3372C25.4113 29.513 25.3125 29.7515 25.3125 30.0001ZM39.375 21.7088C38.6612 20.1392 37.5082 18.8097 36.0553 17.881C37.5382 17.0228 38.703 15.7071 39.375 14.131C40.047 15.7071 41.2118 17.0228 42.6947 17.881C41.2418 18.8097 40.0888 20.1392 39.375 21.7088ZM27.1875 34.6876V30.9376H32.8125V34.6876H27.1875ZM30.9375 36.5626V51.5626H29.0625V36.5626H30.9375ZM29.0625 57.1876V53.4376H30.9375V57.1876H29.0625ZM51.5625 38.4376H32.8125V36.5626H33.75C33.9986 36.5626 34.2371 36.4638 34.4129 36.288C34.5887 36.1122 34.6875 35.8737 34.6875 35.6251V33.7501H42.1875C42.4361 33.7501 42.6746 33.6513 42.8504 33.4755C43.0262 33.2997 43.125 33.0612 43.125 32.8126V23.4376C43.125 23.189 43.0262 22.9505 42.8504 22.7747C42.6746 22.5989 42.4361 22.5001 42.1875 22.5001H41.0859C41.488 21.6107 42.0696 20.8141 42.7943 20.1604C43.5191 19.5066 44.3712 19.0099 45.2972 18.7013C45.4894 18.6369 45.6555 18.512 45.7707 18.3452C45.8859 18.1784 45.9439 17.9788 45.9361 17.7763C45.9283 17.5738 45.855 17.3792 45.7273 17.2218C45.5996 17.0644 45.4244 16.9526 45.2278 16.9032C44.23 16.6569 43.3111 16.1615 42.5569 15.4633C41.8027 14.7652 41.2379 13.8871 40.9153 12.9113L40.2591 10.9538C40.1974 10.7663 40.0781 10.603 39.9182 10.4872C39.7583 10.3714 39.5659 10.3091 39.3684 10.3091C39.171 10.3091 38.9786 10.3714 38.8187 10.4872C38.6588 10.603 38.5395 10.7663 38.4778 10.9538L37.8216 12.9113C37.499 13.8871 36.9342 14.7652 36.18 15.4633C35.4258 16.1615 34.5068 16.6569 33.5091 16.9032C33.3125 16.9526 33.1372 17.0644 33.0095 17.2218C32.8818 17.3792 32.8086 17.5738 32.8008 17.7763C32.793 17.9788 32.851 18.1784 32.9662 18.3452C33.0814 18.512 33.2475 18.6369 33.4397 18.7013C34.3683 19.0081 35.2232 19.5041 35.9504 20.1579C36.6777 20.8118 37.2615 21.6093 37.665 22.5001H17.8125C17.5639 22.5001 17.3254 22.5989 17.1496 22.7747C16.9738 22.9505 16.875 23.189 16.875 23.4376V32.8126C16.875 33.0612 16.9738 33.2997 17.1496 33.4755C17.3254 33.6513 17.5639 33.7501 17.8125 33.7501H25.3125V35.6251C25.3125 35.8737 25.4113 36.1122 25.5871 36.288C25.7629 36.4638 26.0014 36.5626 26.25 36.5626H27.1875V38.4376H8.4375V6.5626H19.6725C19.044 7.01384 18.3355 7.34153 17.5847 7.52822C17.3881 7.57763 17.2129 7.68941 17.0852 7.84682C16.9575 8.00422 16.8842 8.19876 16.8764 8.4013C16.8686 8.60383 16.9266 8.80344 17.0418 8.97021C17.157 9.13699 17.3231 9.26194 17.5153 9.32635C18.5352 9.66453 19.4648 10.2302 20.2338 10.9806C21.0029 11.7309 21.5912 12.6464 21.9544 13.6576L22.5562 15.3198C22.6219 15.5008 22.7418 15.6571 22.8994 15.7676C23.0571 15.8782 23.245 15.9374 23.4375 15.9374C23.63 15.9374 23.8179 15.8782 23.9756 15.7676C24.1332 15.6571 24.2531 15.5008 24.3188 15.3198L24.9216 13.6576C25.2844 12.6465 25.8726 11.7311 26.6415 10.9809C27.4104 10.2307 28.3399 9.66519 29.3597 9.32729C29.5519 9.26288 29.718 9.13793 29.8332 8.97115C29.9484 8.80438 30.0064 8.60477 29.9986 8.40223C29.9908 8.1997 29.9175 8.00516 29.7898 7.84775C29.6621 7.69035 29.4869 7.57857 29.2903 7.52916C28.5394 7.34218 27.8309 7.01417 27.2025 6.5626H51.5625V38.4376Z" fill="#077CEA"/>
</g>
<defs>
<clipPath id="clip0_13324_34314">
<rect width="60" height="60" fill="white"/>
</clipPath>
</defs>
</svg>
