<svg width="60" height="60" viewBox="0 0 60 60" fill="none" xmlns="http://www.w3.org/2000/svg">
<g clip-path="url(#clip0_13324_34293)">
<path d="M2.07781 25.0001H3.03624V58.0001C3.03624 59.1047 3.9302 60.0001 5.03296 60.0001H38.9773C40.0801 60.0001 40.974 59.1047 40.974 58.0001V40.4501C40.974 39.8978 40.5271 39.4501 39.9757 39.4501C39.4243 39.4501 38.9773 39.8978 38.9773 40.4501V58.0001H35.9772V49.0001C35.9772 45.6864 33.2953 43.0001 29.9871 43.0001C26.6788 43.0001 23.9969 45.6864 23.9969 49.0001V58.0001H5.03296V25.0001H19.4993C20.0506 25.0001 20.4976 24.5524 20.4976 24.0001C20.4976 23.4478 20.0506 23.0001 19.4993 23.0001H4.05357C4.04658 23.0001 4.04159 23.0001 4.0346 23.0001C4.02761 23.0001 4.02262 23.0001 4.01563 23.0001H2.07282L22.0001 8.24008L28.6193 13.1501C29.0626 13.4787 29.6879 13.3851 30.016 12.9411C30.3441 12.497 30.2507 11.8707 29.8074 11.5421L23.1892 6.63708C22.4819 6.11707 21.5194 6.11707 20.8121 6.63708L0.884765 21.4001C0.197933 21.916 -0.0827315 22.814 0.187743 23.6302C0.458217 24.4463 1.21927 24.9979 2.07781 25.0001ZM25.9936 49.0001C25.9936 47.571 26.7548 46.2505 27.9903 45.536C29.2259 44.8215 30.7482 44.8215 31.9838 45.536C33.2194 46.2505 33.9805 47.571 33.9805 49.0001V58.0001H25.9936V49.0001Z" fill="#077CEA"/>
<path d="M9.0218 55H19.0054C19.5568 55 20.0038 54.5523 20.0038 54V44C20.0038 43.4477 19.5568 43 19.0054 43H9.0218C8.47042 43 8.02344 43.4477 8.02344 44V54C8.02344 54.5523 8.47042 55 9.0218 55ZM10.0202 50H13.0153V53H10.0202V50ZM15.012 53V50H18.0071V53H15.012ZM18.0071 48H15.012V45H18.0071V48ZM13.0153 45V48H10.0202V45H13.0153Z" fill="#077CEA"/>
<path d="M20.0038 29C20.0038 28.4477 19.5568 28 19.0054 28H9.0218C8.47042 28 8.02344 28.4477 8.02344 29V39C8.02344 39.5523 8.47042 40 9.0218 40H19.0054C19.5568 40 20.0038 39.5523 20.0038 39V29ZM18.0071 33H15.012V30H18.0071V33ZM13.0153 30V33H10.0202V30H13.0153ZM10.0202 35H13.0153V38H10.0202V35ZM15.012 38V35H18.0071V38H15.012Z" fill="#077CEA"/>
<path d="M30.9866 54C31.538 54 31.985 53.5523 31.985 53V51C31.985 50.4477 31.538 50 30.9866 50C30.4353 50 29.9883 50.4477 29.9883 51V53C29.9883 53.2652 30.0935 53.5196 30.2807 53.7071C30.4679 53.8946 30.7219 54 30.9866 54Z" fill="#077CEA"/>
<path d="M31.3917 14.417L30.6848 15.125C30.4222 15.3895 30.2398 15.723 30.1587 16.087L24.0797 17.692C23.908 17.7369 23.7515 17.827 23.6264 17.953C22.3854 19.195 22.015 21.665 22.634 24.561C22.7249 24.983 22.8337 25.403 22.9645 25.82V25.845C22.9645 25.853 22.9835 25.88 22.9894 25.899C24.6348 31.1917 28.7748 35.3347 34.0603 36.978C34.0753 36.978 34.0853 36.994 34.1012 36.999C34.1172 37.004 34.1232 36.999 34.1352 36.999C34.5485 37.125 34.9648 37.237 35.3831 37.327C36.2411 37.5159 37.1164 37.6144 37.9948 37.621C39.4399 37.7259 40.869 37.2641 41.9803 36.333C42.1061 36.2077 42.1961 36.051 42.2409 35.879L43.8383 29.79C44.2017 29.708 44.5348 29.5254 44.7997 29.263L45.5055 28.555C47.6798 26.376 48.1789 23.0305 46.7355 20.31L58.017 10.035C59.7954 8.41614 60.3831 5.86135 59.4914 3.62621C58.5997 1.39106 56.416 -0.0544662 54.0136 2.40171e-05C52.4381 0.0320276 50.9458 0.71495 49.8903 1.88702L39.6272 13.19C36.9112 11.741 33.569 12.239 31.3917 14.417ZM40.3879 35.074C39.6651 35.585 38.0438 35.855 35.8014 35.374C35.7385 35.36 35.6587 35.339 35.5908 35.323L36.5892 31.649C36.6828 31.3043 36.5857 30.9357 36.3344 30.6821C36.0831 30.4285 35.7159 30.3284 35.371 30.4196C35.0261 30.5107 34.7559 30.7793 34.6623 31.124L33.6819 34.724C32.0799 34.0949 30.599 33.1922 29.3051 32.056L32.6546 28.701C33.033 28.3086 33.0275 27.6849 32.6424 27.2992C32.2573 26.9135 31.6347 26.9081 31.2429 27.287L27.8934 30.642C26.7591 29.346 25.8578 27.8627 25.2298 26.258L28.8289 25.276C29.361 25.131 29.675 24.5815 29.5302 24.0485C29.3855 23.5156 28.8368 23.2011 28.3047 23.346L24.6367 24.346C24.6208 24.278 24.5998 24.198 24.5858 24.135C24.1056 21.888 24.3762 20.265 24.8853 19.541L30.7357 18L41.9334 29.216L40.3879 35.074ZM44.0978 27.145L43.393 27.853L32.0965 16.539L32.8034 15.832C34.7528 13.8794 37.9134 13.8794 39.8628 15.832L44.0978 20.074C46.0472 22.0266 46.0472 25.1924 44.0978 27.145ZM51.3619 3.23302C52.2952 2.20702 53.716 1.77801 55.0599 2.11643C56.4038 2.45485 57.4531 3.5059 57.791 4.85199C58.1289 6.19809 57.7005 7.62124 56.6762 8.55602L45.5435 18.693L41.2415 14.384L51.3619 3.23302Z" fill="#077CEA"/>
<path d="M44.9258 38.5C44.9258 40.433 46.4902 42 48.4201 42C50.3499 42 51.9143 40.433 51.9143 38.5C51.9143 36.567 50.3499 35 48.4201 35C46.4902 35 44.9258 36.567 44.9258 38.5ZM49.9176 38.5C49.9176 39.3284 49.2471 40 48.4201 40C47.593 40 46.9225 39.3284 46.9225 38.5C46.9225 37.6716 47.593 37 48.4201 37C49.2471 37 49.9176 37.6716 49.9176 38.5Z" fill="#077CEA"/>
<path d="M31.4513 8C33.3811 8 34.9456 6.433 34.9456 4.5C34.9456 2.567 33.3811 1 31.4513 1C29.5215 1 27.957 2.567 27.957 4.5C27.957 6.433 29.5215 8 31.4513 8ZM31.4513 3C32.2784 3 32.9488 3.67157 32.9488 4.5C32.9488 5.32843 32.2784 6 31.4513 6C30.6242 6 29.9538 5.32843 29.9538 4.5C29.9538 3.67157 30.6242 3 31.4513 3Z" fill="#077CEA"/>
<path d="M53.9124 24C53.361 24 52.9141 24.4477 52.9141 25V27C52.9141 27.5523 53.361 28 53.9124 28C54.4638 28 54.9108 27.5523 54.9108 27V25C54.9108 24.4477 54.4638 24 53.9124 24Z" fill="#077CEA"/>
<path d="M52.9141 31V33C52.9141 33.5523 53.361 34 53.9124 34C54.4638 34 54.9108 33.5523 54.9108 33V31C54.9108 30.4477 54.4638 30 53.9124 30C53.361 30 52.9141 30.4477 52.9141 31Z" fill="#077CEA"/>
<path d="M57.9052 28H55.9085C55.3571 28 54.9102 28.4477 54.9102 29C54.9102 29.5523 55.3571 30 55.9085 30H57.9052C58.4566 30 58.9036 29.5523 58.9036 29C58.9036 28.4477 58.4566 28 57.9052 28Z" fill="#077CEA"/>
<path d="M52.9153 29C52.9153 28.4477 52.4683 28 51.917 28H49.9202C49.3689 28 48.9219 28.4477 48.9219 29C48.9219 29.5523 49.3689 30 49.9202 30H51.917C52.4683 30 52.9153 29.5523 52.9153 29Z" fill="#077CEA"/>
<path d="M13.2739 8.70692C13.6656 9.08589 14.2883 9.08047 14.6734 8.69474C15.0585 8.309 15.0639 7.6853 14.6856 7.29292L13.188 5.79292C12.7963 5.41395 12.1736 5.41937 11.7885 5.8051C11.4034 6.19083 11.398 6.81454 11.7763 7.20692L13.2739 8.70692Z" fill="#077CEA"/>
<path d="M8.7778 4.20692C9.16953 4.58589 9.79222 4.58047 10.1773 4.19474C10.5624 3.809 10.5678 3.1853 10.1895 2.79292L8.69194 1.29292C8.3002 0.913947 7.67752 0.919367 7.29241 1.3051C6.90731 1.69083 6.9019 2.31454 7.28025 2.70692L8.7778 4.20692Z" fill="#077CEA"/>
<path d="M7.98646 9.00011C8.25122 9.00005 8.50512 8.89466 8.6923 8.70711L10.1898 7.20711C10.4494 6.95603 10.5535 6.58423 10.4621 6.2346C10.3707 5.88497 10.0981 5.61192 9.74908 5.52041C9.40002 5.42889 9.02883 5.53315 8.77816 5.79311L7.28062 7.29311C6.99518 7.5791 6.9098 8.00914 7.06429 8.38276C7.21878 8.75638 7.58273 9.00002 7.98646 9.00011Z" fill="#077CEA"/>
<path d="M12.4826 4.49992C12.7473 4.49986 13.0012 4.39447 13.1884 4.20692L14.6859 2.70692C15.0643 2.31454 15.0589 1.69083 14.6738 1.3051C14.2887 0.919367 13.666 0.913947 13.2743 1.29292L11.7767 2.79292C11.4913 3.07891 11.4059 3.50896 11.5604 3.88257C11.7149 4.25619 12.0788 4.49983 12.4826 4.49992Z" fill="#077CEA"/>
</g>
<defs>
<clipPath id="clip0_13324_34293">
<rect width="59.9018" height="60" fill="white"/>
</clipPath>
</defs>
</svg>
