<svg width="16" height="15" viewBox="0 0 16 15" fill="none" xmlns="http://www.w3.org/2000/svg">
<path d="M8.0951 6.73828H6.92188V7.91016H8.0951V6.73828Z" fill="#0678E3"/>
<path d="M13.2615 1.17188H12.5574V0H11.3838V1.17188H3.63812V0H2.46453V1.17188H1.76038C0.789707 1.17188 0 1.96043 0 2.92969V13.2422C0 14.2114 0.789707 15 1.76038 15H5.66256H5.75058H7.79737C7.39166 14.6656 7.0383 14.2702 6.75103 13.8281H5.75058H5.66256H1.76038C1.43682 13.8281 1.17359 13.5653 1.17359 13.2422V5.50781H13.8483V6.67969V6.73828V6.74118C14.291 7.02803 14.687 7.38091 15.0219 7.786V6.73828V6.67969V2.92969C15.0219 1.96043 14.2322 1.17188 13.2615 1.17188ZM13.8483 4.33594H1.17359V2.92969C1.17359 2.6066 1.43682 2.34375 1.76038 2.34375H2.46453V3.51562H3.63812V2.34375H11.3838V3.51562H12.5574V2.34375H13.2615C13.5851 2.34375 13.8483 2.6066 13.8483 2.92969V4.33594Z" fill="#0678E3"/>
<path d="M11.0624 7.08984C8.8784 7.08984 7.10156 8.86409 7.10156 11.0449C7.10156 13.2258 8.8784 15 11.0624 15C13.2464 15 15.0233 13.2258 15.0233 11.0449C15.0233 8.86409 13.2464 7.08984 11.0624 7.08984ZM11.0624 13.8281C9.52552 13.8281 8.27515 12.5796 8.27515 11.0449C8.27515 9.51026 9.52552 8.26172 11.0624 8.26172C12.5993 8.26172 13.8497 9.51026 13.8497 11.0449C13.8497 12.5796 12.5993 13.8281 11.0624 13.8281Z" fill="#0678E3"/>
<path d="M11.6194 9.08203H10.4453V11.6309H12.6174V10.459H11.6194V9.08203Z" fill="#0678E3"/>
<path d="M5.75135 9.08203H4.57812V10.2539H5.75135V9.08203Z" fill="#0678E3"/>
<path d="M3.40369 9.08203H2.23047V10.2539H3.40369V9.08203Z" fill="#0678E3"/>
<path d="M3.40369 6.73828H2.23047V7.91016H3.40369V6.73828Z" fill="#0678E3"/>
<path d="M3.40369 11.4258H2.23047V12.5977H3.40369V11.4258Z" fill="#0678E3"/>
<path d="M5.75135 6.73828H4.57812V7.91016H5.75135V6.73828Z" fill="#0678E3"/>
<path d="M5.75135 11.4258H4.57812V12.5977H5.75135V11.4258Z" fill="#0678E3"/>
</svg>
