<svg width="13" height="13" viewBox="0 0 13 13" fill="none" xmlns="http://www.w3.org/2000/svg">
<g clip-path="url(#clip0_11834_1095)">
<path d="M10.274 8.05304C10.0079 7.77593 9.68688 7.62776 9.34666 7.62776C9.00918 7.62776 8.68542 7.77318 8.4083 8.0503L7.54128 8.91458C7.46994 8.87616 7.3986 8.8405 7.33001 8.80483C7.23124 8.75544 7.13795 8.7088 7.05838 8.65941C6.24623 8.14359 5.50817 7.47137 4.80028 6.6016C4.45732 6.16809 4.22684 5.80318 4.05947 5.43277C4.28446 5.22699 4.49298 5.01298 4.69602 4.8072C4.77285 4.73037 4.84967 4.65081 4.9265 4.57398C5.50268 3.9978 5.50268 3.2515 4.9265 2.67531L4.17745 1.92627C4.0924 1.84122 4.0046 1.75342 3.92229 1.66562C3.75766 1.49551 3.58481 1.31991 3.40646 1.15528C3.14032 0.891884 2.82205 0.751953 2.48731 0.751953C2.15258 0.751953 1.82881 0.891884 1.55444 1.15528C1.5517 1.15803 1.5517 1.15803 1.54895 1.16077L0.616081 2.10187C0.264882 2.45307 0.0645893 2.88109 0.0206895 3.37771C-0.0451602 4.17888 0.190801 4.92518 0.371888 5.41357C0.816374 6.61258 1.48036 7.72379 2.47085 8.91458C3.67261 10.3496 5.11856 11.4827 6.77029 12.2811C7.40135 12.5802 8.24368 12.9342 9.18478 12.9945C9.2424 12.9973 9.30276 13 9.35763 13C9.99144 13 10.5237 12.7723 10.9408 12.3196C10.9435 12.3141 10.949 12.3113 10.9517 12.3058C11.0944 12.133 11.259 11.9766 11.4319 11.8092C11.5499 11.6967 11.6706 11.5787 11.7886 11.4553C12.0602 11.1727 12.2029 10.8434 12.2029 10.5059C12.2029 10.1657 12.0575 9.83922 11.7804 9.56484L10.274 8.05304ZM11.2563 10.9422C11.2536 10.9422 11.2536 10.9449 11.2563 10.9422C11.1493 11.0574 11.0395 11.1617 10.9216 11.2769C10.7432 11.447 10.5621 11.6254 10.392 11.8257C10.1149 12.122 9.7884 12.2619 9.36038 12.2619C9.31922 12.2619 9.27532 12.2619 9.23417 12.2592C8.41928 12.2071 7.662 11.8888 7.09405 11.6172C5.54109 10.8654 4.17745 9.79806 3.04429 8.4454C2.10868 7.31772 1.4831 6.2751 1.0688 5.15565C0.81363 4.47246 0.720343 3.94018 0.761499 3.43807C0.788936 3.11706 0.912405 2.85091 1.14014 2.62318L2.07575 1.68757C2.21019 1.56136 2.35287 1.49276 2.4928 1.49276C2.66565 1.49276 2.80558 1.59702 2.89338 1.68482C2.89613 1.68757 2.89887 1.69031 2.90162 1.69306C3.06898 1.84945 3.22812 2.01133 3.39549 2.18419C3.48054 2.27198 3.56834 2.35978 3.65614 2.45033L4.40518 3.19937C4.69602 3.4902 4.69602 3.75909 4.40518 4.04993C4.32562 4.1295 4.24879 4.20906 4.16922 4.28589C3.93875 4.52185 3.71925 4.74135 3.48054 4.95536C3.47506 4.96085 3.46957 4.96359 3.46683 4.96908C3.23086 5.20504 3.27476 5.43552 3.32415 5.59191C3.3269 5.60014 3.32964 5.60837 3.33238 5.6166C3.52719 6.08853 3.80156 6.53301 4.21861 7.06255L4.22135 7.0653C4.97863 7.99817 5.77705 8.72526 6.65779 9.28224C6.77029 9.35357 6.88553 9.41119 6.99527 9.46607C7.09405 9.51546 7.18734 9.5621 7.2669 9.61149C7.27788 9.61697 7.28886 9.62521 7.29983 9.63069C7.39312 9.67734 7.48092 9.69929 7.57146 9.69929C7.79919 9.69929 7.94186 9.55661 7.98851 9.50997L8.92687 8.57161C9.02015 8.47832 9.16832 8.36583 9.34117 8.36583C9.51128 8.36583 9.65121 8.47283 9.73627 8.56612C9.73901 8.56887 9.73901 8.56887 9.74176 8.57161L11.2536 10.0834C11.5362 10.3633 11.5362 10.6514 11.2563 10.9422Z" fill="#16171A"/>
<path d="M7.02547 3.09222C7.74433 3.21294 8.39734 3.55316 8.91865 4.07447C9.43996 4.59578 9.77744 5.24879 9.90091 5.96765C9.93109 6.14874 10.0875 6.27495 10.2658 6.27495C10.2878 6.27495 10.307 6.27221 10.3289 6.26946C10.532 6.23654 10.6664 6.04448 10.6335 5.84144C10.4853 4.97168 10.0738 4.17874 9.44545 3.55042C8.81713 2.9221 8.02419 2.51054 7.15443 2.36238C6.95139 2.32946 6.76207 2.4639 6.7264 2.66419C6.69074 2.86449 6.82243 3.05929 7.02547 3.09222Z" fill="#16171A"/>
<path d="M12.9859 5.73457C12.7418 4.30234 12.0668 2.99907 11.0297 1.96193C9.99253 0.9248 8.68925 0.24984 7.25702 0.00564702C7.05672 -0.0300216 6.86741 0.107165 6.83174 0.307458C6.79881 0.510495 6.93326 0.699813 7.13629 0.735482C8.41488 0.952237 9.58097 1.5586 10.5083 2.48324C11.4357 3.41063 12.0394 4.57672 12.2561 5.8553C12.2863 6.03639 12.4427 6.1626 12.621 6.1626C12.643 6.1626 12.6622 6.15985 12.6841 6.15711C12.8844 6.12693 13.0216 5.93487 12.9859 5.73457Z" fill="#16171A"/>
</g>
<defs>
<clipPath id="clip0_11834_1095">
<rect width="13" height="13" fill="white"/>
</clipPath>
</defs>
</svg>
