<svg width="16" height="15" viewBox="0 0 16 15" fill="none" xmlns="http://www.w3.org/2000/svg">
<g clip-path="url(#clip0_13324_8055)">
<path d="M12.7376 1.01074H2.54173C1.47572 1.01074 0.608398 1.87789 0.608398 2.94408V9.18371C0.608398 10.2475 1.47194 11.1133 2.53487 11.117V13.9485L6.60402 11.117H12.7376C13.8036 11.117 14.6709 10.2497 14.6709 9.18371V2.94408C14.6709 1.87789 13.8036 1.01074 12.7376 1.01074ZM13.8469 9.18371C13.8469 9.79534 13.3493 10.2931 12.7376 10.2931H6.34549L3.35884 12.3714V10.2931H2.54173C1.93002 10.2931 1.43237 9.79534 1.43237 9.18371V2.94408C1.43237 2.33228 1.93002 1.83472 2.54173 1.83472H12.7376C13.3493 1.83472 13.8469 2.33228 13.8469 2.94408V9.18371Z" fill="#0678E3"/>
<path d="M4.37402 3.92188H10.909V4.74585H4.37402V3.92188Z" fill="#0678E3"/>
<path d="M4.37402 5.67969H10.909V6.50366H4.37402V5.67969Z" fill="#0678E3"/>
<path d="M4.37402 7.4375H10.909V8.26147H4.37402V7.4375Z" fill="#0678E3"/>
</g>
<defs>
<clipPath id="clip0_13324_8055">
<rect width="15" height="15" fill="white" transform="translate(0.147461)"/>
</clipPath>
</defs>
</svg>
