<svg width="70" height="70" viewBox="0 0 70 70" fill="none" xmlns="http://www.w3.org/2000/svg">
<path d="M40.4688 61.7969C39.7141 61.7969 39.1016 62.4094 39.1016 63.1641C39.1016 63.9187 39.7141 64.5312 40.4688 64.5312C41.2234 64.5312 41.8359 63.9187 41.8359 63.1641C41.8359 62.4094 41.2234 61.7969 40.4688 61.7969Z" fill="white"/>
<path d="M59.6094 6.28906H55.5078V4.10156C55.5078 1.83996 53.6679 0 51.4062 0H18.5938C16.3321 0 14.4922 1.83996 14.4922 4.10156V6.28906H10.3906C8.12902 6.28906 6.28906 8.12902 6.28906 10.3906C6.28906 19.2851 10.4511 25.8217 17.203 27.6415C19.5177 32.7363 23.1774 37.0675 27.8225 40.1971C28.8925 40.918 29.5312 42.1522 29.5312 43.4984V51.0315C28.594 51.2719 27.7342 51.7591 27.0319 52.4616C25.9987 53.4949 25.4297 54.868 25.4297 56.3281H24.0625C21.8009 56.3281 19.9609 58.1681 19.9609 60.4297V68.6328C19.9609 69.3879 20.5732 70 21.3281 70H48.6719C49.4268 70 50.0391 69.3879 50.0391 68.6328V60.4297C50.0391 58.1681 48.1991 56.3281 45.9375 56.3281H44.5703C44.5703 53.7846 42.8248 51.641 40.4688 51.0325V43.5053C40.4688 42.1546 41.1079 40.9181 42.1788 40.1972C46.8244 37.0673 50.4841 32.7361 52.7986 27.6411C59.5496 25.8206 63.7109 19.2845 63.7109 10.3906C63.7109 8.12902 61.871 6.28906 59.6094 6.28906ZM9.02344 10.3906C9.02344 9.63676 9.63676 9.02344 10.3906 9.02344H14.4922V15.1348C14.4922 18.2513 14.9643 21.3031 15.8963 24.2421C11.5455 22.0871 9.02344 17.1098 9.02344 10.3906ZM45.9375 59.0625C46.6914 59.0625 47.3047 59.6758 47.3047 60.4297V67.2656H22.6953V60.4297C22.6953 59.6758 23.3086 59.0625 24.0625 59.0625H45.9375ZM52.7734 15.1348C52.7734 18.8694 52.03 22.5034 50.5632 25.9355C48.4769 30.8187 45.0494 34.9661 40.6514 37.9292C38.8248 39.1587 37.7344 41.2433 37.7344 43.5053V52.2266C37.7344 52.9817 38.3466 53.5938 39.1016 53.5938C40.6093 53.5938 41.8359 54.8204 41.8359 56.3281H28.1641C28.1641 55.5983 28.4487 54.9119 28.9654 54.3951C29.4567 53.9037 30.1016 53.6223 30.7913 53.5958C30.8267 53.5985 30.8623 53.5999 30.8983 53.5999C31.6533 53.5999 32.2655 52.9817 32.2655 52.2266V43.4984C32.2655 41.2412 31.1757 39.1594 29.3504 37.9295C24.952 34.9662 21.5245 30.8189 19.4379 25.9353C17.9706 22.5043 17.2266 18.8705 17.2266 15.1348V4.10156C17.2266 3.3477 17.8399 2.73438 18.5938 2.73438H51.4062C52.1601 2.73438 52.7734 3.3477 52.7734 4.10156V15.1348ZM54.1043 24.2419C55.0359 21.3021 55.5078 18.2504 55.5078 15.1348V9.02344H59.6094C60.3632 9.02344 60.9766 9.63676 60.9766 10.3906C60.9766 17.1094 58.4548 22.0865 54.1043 24.2419Z" fill="white"/>
<path d="M45.8199 16.1547C45.6592 15.6596 45.2313 15.2988 44.7161 15.2242L38.8159 14.3678L36.1768 9.02002C35.9464 8.55326 35.4712 8.25781 34.9507 8.25781C34.4302 8.25781 33.955 8.55326 33.7246 9.02002L31.0855 14.3678L25.1854 15.2242C24.6703 15.299 24.2425 15.6598 24.0816 16.1547C23.9208 16.6497 24.0549 17.1931 24.4276 17.5563L28.6979 21.718L27.69 27.5952C27.6021 28.1081 27.8129 28.6264 28.234 28.9324C28.6551 29.2383 29.2133 29.2786 29.6738 29.0365L34.9509 26.262L40.2292 29.0365C40.6926 29.2801 41.2506 29.2363 41.6689 28.9323C42.0899 28.6263 42.3007 28.1079 42.2127 27.5949L41.2037 21.7179L45.4738 17.5563C45.8467 17.1931 45.9806 16.6497 45.8199 16.1547ZM38.7803 20.2614C38.4581 20.5756 38.3109 21.0283 38.3871 21.472L39.049 25.327L35.5869 23.5071C35.1883 23.2978 34.7126 23.2978 34.3146 23.5073L30.8535 25.327L31.5147 21.4717C31.5907 21.028 31.4436 20.5755 31.1214 20.2614L28.3208 17.532L32.1901 16.9704C32.6355 16.9057 33.0205 16.626 33.2197 16.2224L34.9509 12.7143L36.682 16.2224C36.8812 16.626 37.2662 16.9057 37.7116 16.9704L41.581 17.532L38.7803 20.2614Z" fill="white"/>
<path d="M35 61.7969H29.5312C28.7763 61.7969 28.1641 62.409 28.1641 63.1641C28.1641 63.9192 28.7763 64.5312 29.5312 64.5312H35C35.755 64.5312 36.3672 63.9192 36.3672 63.1641C36.3672 62.409 35.755 61.7969 35 61.7969Z" fill="white"/>
<path d="M56.0557 65.8984H56.8179C56.4296 65.8214 56.1685 65.8138 56.0557 65.8984Z" fill="white"/>
</svg>
