<svg width="70" height="70" viewBox="0 0 70 70" fill="none" xmlns="http://www.w3.org/2000/svg">
<path d="M52.5 32.8125C51.3401 32.8137 50.228 33.2751 49.4078 34.0953C48.5876 34.9155 48.1262 36.0276 48.125 37.1875V42.6562C48.1223 44.4352 47.7584 46.1951 47.0554 47.8293C46.3524 49.4635 45.3249 50.9379 44.0352 52.1632C42.7455 53.3885 41.2204 54.3392 39.5524 54.9576C37.8844 55.576 36.1081 55.8493 34.3314 55.761C30.9155 55.5397 27.716 54.0119 25.3967 51.4944C23.0773 48.977 21.8162 45.6632 21.875 42.2408V37.1875C21.875 36.0272 21.4141 34.9144 20.5936 34.0939C19.7731 33.2734 18.6603 32.8125 17.5 32.8125C16.3397 32.8125 15.2269 33.2734 14.4064 34.0939C13.5859 34.9144 13.125 36.0272 13.125 37.1875V42.1425C13.1195 47.7131 15.169 53.0899 18.8811 57.2435C19.4048 57.8339 19.692 58.5969 19.6875 59.3861V64.5312C19.6875 64.8213 19.8027 65.0995 20.0079 65.3046C20.213 65.5098 20.4912 65.625 20.7813 65.625C21.0713 65.625 21.3495 65.5098 21.5547 65.3046C21.7598 65.0995 21.875 64.8213 21.875 64.5312V59.3861C21.8799 58.0588 21.3941 56.7765 20.511 55.7855C17.1583 52.0325 15.3074 47.1749 15.3125 42.1425V37.1875C15.3125 36.6073 15.543 36.0509 15.9532 35.6407C16.3635 35.2305 16.9198 35 17.5 35C18.0802 35 18.6366 35.2305 19.0468 35.6407C19.457 36.0509 19.6875 36.6073 19.6875 37.1875V42.2408C19.6281 46.225 21.1049 50.0791 23.8114 53.0034C26.518 55.9278 30.2466 57.6978 34.2234 57.9463C36.2962 58.0491 38.3682 57.7299 40.314 57.0082C42.2598 56.2864 44.0387 55.1771 45.5431 53.7475C47.0474 52.3179 48.2458 50.5977 49.0656 48.6912C49.8855 46.7847 50.3097 44.7316 50.3125 42.6562V37.1875C50.3125 36.6073 50.543 36.0509 50.9532 35.6407C51.3635 35.2305 51.9199 35 52.5 35C53.0802 35 53.6366 35.2305 54.0468 35.6407C54.457 36.0509 54.6875 36.6073 54.6875 37.1875V42.6562C54.6911 47.5645 52.8537 52.2956 49.5381 55.9148C48.6259 56.914 48.1217 58.219 48.125 59.572V64.5312C48.125 64.8213 48.2402 65.0995 48.4454 65.3046C48.6505 65.5098 48.9287 65.625 49.2188 65.625C49.5088 65.625 49.787 65.5098 49.9922 65.3046C50.1973 65.0995 50.3125 64.8213 50.3125 64.5312V59.572C50.3095 58.7653 50.6095 57.9869 51.1531 57.3909C54.8369 53.3683 56.8786 48.1107 56.875 42.6562V37.1875C56.8738 36.0276 56.4124 34.9155 55.5922 34.0953C54.772 33.2751 53.66 32.8137 52.5 32.8125Z" fill="white"/>
<path d="M34.9996 32.7853C33.0526 32.7852 31.1494 33.3625 29.5305 34.4441C27.9116 35.5258 26.6498 37.0632 25.9047 38.8619C25.1596 40.6606 24.9646 42.6399 25.3444 44.5495C25.7242 46.4591 26.6617 48.2131 28.0383 49.5899C29.415 50.9666 31.169 51.9042 33.0786 52.2841C34.9881 52.664 36.9674 52.4691 38.7662 51.7241C40.565 50.9791 42.1024 49.7174 43.1842 48.0986C44.2659 46.4798 44.8433 44.5765 44.8433 42.6296C44.8405 40.0197 43.8025 37.5174 41.9571 35.6719C40.1116 33.8264 37.6095 32.7882 34.9996 32.7853ZM34.9996 50.2858C33.4852 50.2859 32.0049 49.8369 30.7457 48.9956C29.4866 48.1543 28.5052 46.9585 27.9256 45.5594C27.3461 44.1604 27.1945 42.6209 27.4899 41.1356C27.7853 39.6504 28.5145 38.2861 29.5853 37.2153C30.6561 36.1445 32.0204 35.4153 33.5057 35.1199C34.9909 34.8245 36.5304 34.9761 37.9295 35.5556C39.3285 36.1352 40.5243 37.1166 41.3656 38.3757C42.2069 39.6349 42.6559 41.1152 42.6558 42.6296C42.6534 44.6594 41.8459 46.6053 40.4106 48.0406C38.9753 49.4759 37.0294 50.2834 34.9996 50.2858Z" fill="white"/>
<path d="M35 30.625C37.5959 30.625 40.1335 29.8552 42.2919 28.413C44.4503 26.9709 46.1325 24.921 47.1259 22.5227C48.1193 20.1244 48.3792 17.4854 47.8728 14.9394C47.3664 12.3934 46.1163 10.0548 44.2808 8.21923C42.4452 6.38367 40.1066 5.13363 37.5606 4.6272C35.0146 4.12077 32.3756 4.38069 29.9773 5.37409C27.579 6.36749 25.5292 8.04975 24.087 10.2081C22.6448 12.3665 21.875 14.9041 21.875 17.5C21.8789 20.9798 23.2629 24.3159 25.7235 26.7765C28.1841 29.2371 31.5202 30.6211 35 30.625ZM35 6.56251C37.1632 6.56251 39.2779 7.20398 41.0765 8.40581C42.8752 9.60763 44.2771 11.3158 45.1049 13.3144C45.9328 15.313 46.1494 17.5121 45.7273 19.6338C45.3053 21.7555 44.2636 23.7043 42.734 25.234C41.2043 26.7636 39.2555 27.8053 37.1338 28.2273C35.0121 28.6494 32.813 28.4328 30.8144 27.6049C28.8158 26.7771 27.1076 25.3752 25.9058 23.5766C24.704 21.7779 24.0625 19.6632 24.0625 17.5C24.0658 14.6002 25.2192 11.8202 27.2697 9.76969C29.3201 7.71923 32.1002 6.56582 35 6.56251Z" fill="white"/>
<path d="M18.5938 16.4062H15.8594C15.5693 16.4062 15.2911 16.5215 15.086 16.7266C14.8809 16.9317 14.7656 17.2099 14.7656 17.5C14.7656 17.7901 14.8809 18.0683 15.086 18.2734C15.2911 18.4785 15.5693 18.5938 15.8594 18.5938H18.5938C18.8838 18.5938 19.162 18.4785 19.3671 18.2734C19.5723 18.0683 19.6875 17.7901 19.6875 17.5C19.6875 17.2099 19.5723 16.9317 19.3671 16.7266C19.162 16.5215 18.8838 16.4062 18.5938 16.4062Z" fill="white"/>
<path d="M20.8507 23.3597C20.7391 23.0922 20.5261 22.8797 20.2583 22.7688C19.9904 22.6579 19.6896 22.6576 19.4215 22.768L11.8422 25.9066C11.7092 25.9614 11.5884 26.0419 11.4865 26.1434C11.3847 26.245 11.3039 26.3656 11.2488 26.4984C11.1936 26.6313 11.1652 26.7736 11.1652 26.9175C11.1651 27.0613 11.1934 27.2037 11.2485 27.3365C11.3035 27.4694 11.3842 27.5901 11.486 27.6917C11.5878 27.7934 11.7086 27.8739 11.8415 27.9288C11.9744 27.9837 12.1169 28.0118 12.2607 28.0116C12.4045 28.0114 12.5468 27.9828 12.6796 27.9275L20.2589 24.7888C20.5268 24.6776 20.7395 24.4646 20.8505 24.1967C20.9614 23.9287 20.9615 23.6277 20.8507 23.3597Z" fill="white"/>
<path d="M20.9376 31.5623C21.0392 31.6639 21.1597 31.7445 21.2924 31.7995C21.4251 31.8544 21.5673 31.8827 21.7109 31.8827C21.8546 31.8827 21.9968 31.8544 22.1295 31.7995C22.2622 31.7445 22.3827 31.6639 22.4843 31.5623L24.1686 29.8779C24.3737 29.6728 24.4889 29.3947 24.4889 29.1046C24.4889 28.8146 24.3737 28.5364 24.1686 28.3313C23.9635 28.1262 23.6854 28.011 23.3953 28.011C23.1053 28.011 22.8271 28.1262 22.622 28.3313L20.9376 30.0157C20.836 30.1172 20.7555 30.2378 20.7005 30.3705C20.6455 30.5031 20.6172 30.6454 20.6172 30.789C20.6172 30.9326 20.6455 31.0748 20.7005 31.2075C20.7555 31.3402 20.836 31.4608 20.9376 31.5623Z" fill="white"/>
<path d="M45.8321 28.3312C45.7306 28.4327 45.65 28.5533 45.595 28.6859C45.54 28.8186 45.5117 28.9609 45.5117 29.1045C45.5117 29.2481 45.54 29.3903 45.595 29.523C45.65 29.6557 45.7306 29.7763 45.8321 29.8778L47.5165 31.5622C47.6181 31.6637 47.7386 31.7443 47.8713 31.7992C48.004 31.8542 48.1462 31.8825 48.2898 31.8825C48.4335 31.8825 48.5757 31.8542 48.7084 31.7992C48.841 31.7443 48.9616 31.6637 49.0632 31.5622C49.1647 31.4606 49.2453 31.3401 49.3002 31.2074C49.3552 31.0747 49.3835 30.9325 49.3835 30.7889C49.3835 30.6452 49.3552 30.503 49.3002 30.3703C49.2453 30.2377 49.1647 30.1171 49.0632 30.0155L47.3788 28.3312C47.2772 28.2296 47.1567 28.149 47.024 28.094C46.8913 28.039 46.7491 28.0107 46.6055 28.0107C46.4618 28.0107 46.3196 28.039 46.1869 28.094C46.0542 28.149 45.9337 28.2296 45.8321 28.3312Z" fill="white"/>
<path d="M58.1582 25.9065L50.5789 22.7679C50.4461 22.7125 50.3038 22.6839 50.16 22.6837C50.0162 22.6835 49.8737 22.7116 49.7408 22.7665C49.6078 22.8214 49.487 22.902 49.3853 23.0036C49.2835 23.1052 49.2028 23.2259 49.1478 23.3588C49.0927 23.4916 49.0644 23.634 49.0645 23.7779C49.0645 23.9217 49.0929 24.0641 49.1481 24.1969C49.2032 24.3297 49.284 24.4503 49.3858 24.5519C49.4877 24.6535 49.6085 24.7339 49.7415 24.7887L57.3208 27.9274C57.4536 27.9827 57.596 28.0113 57.7398 28.0115C57.8836 28.0118 58.026 27.9836 58.159 27.9287C58.2919 27.8738 58.4127 27.7933 58.5144 27.6917C58.6162 27.59 58.6969 27.4693 58.752 27.3365C58.807 27.2036 58.8353 27.0612 58.8353 26.9174C58.8352 26.7736 58.8068 26.6312 58.7517 26.4984C58.6965 26.3655 58.6157 26.2449 58.5139 26.1433C58.4121 26.0418 58.2912 25.9613 58.1582 25.9065Z" fill="white"/>
<path d="M51.4062 16.4062C51.1162 16.4062 50.838 16.5215 50.6329 16.7266C50.4277 16.9317 50.3125 17.2099 50.3125 17.5C50.3125 17.7901 50.4277 18.0683 50.6329 18.2734C50.838 18.4785 51.1162 18.5938 51.4062 18.5938H54.1406C54.4307 18.5938 54.7089 18.4785 54.914 18.2734C55.1191 18.0683 55.2344 17.7901 55.2344 17.5C55.2344 17.2099 55.1191 16.9317 54.914 16.7266C54.7089 16.5215 54.4307 16.4062 54.1406 16.4062H51.4062Z" fill="white"/>
<path d="M50.1601 12.3159C50.3038 12.3157 50.4461 12.2872 50.5788 12.232L58.1581 9.09341C58.2911 9.03862 58.4119 8.95814 58.5138 8.85659C58.6156 8.75503 58.6964 8.63439 58.7515 8.50157C58.8067 8.36875 58.8351 8.22636 58.8352 8.08254C58.8352 7.93873 58.8069 7.79631 58.7518 7.66345C58.6968 7.53059 58.6161 7.4099 58.5143 7.30827C58.4126 7.20664 58.2918 7.12608 58.1588 7.07119C58.0259 7.0163 57.8835 6.98817 57.7396 6.9884C57.5958 6.98864 57.4535 7.01723 57.3207 7.07254L49.7414 10.2112C49.5076 10.3081 49.3147 10.4831 49.1955 10.7063C49.0762 10.9294 49.0381 11.1871 49.0874 11.4353C49.1368 11.6834 49.2707 11.9068 49.4663 12.0674C49.6618 12.228 49.907 12.3158 50.1601 12.3159Z" fill="white"/>
<path d="M11.8422 9.09348L19.4215 12.2321C19.5543 12.2875 19.6966 12.316 19.8405 12.3163C19.9843 12.3165 20.1267 12.2884 20.2596 12.2335C20.3926 12.1786 20.5134 12.098 20.6151 11.9964C20.7169 11.8948 20.7976 11.7741 20.8527 11.6412C20.9077 11.5084 20.936 11.366 20.936 11.2221C20.9359 11.0783 20.9075 10.9359 20.8524 10.8031C20.7972 10.6703 20.7164 10.5497 20.6146 10.4481C20.5128 10.3465 20.3919 10.2661 20.2589 10.2113L12.6796 7.07257C12.5469 7.01759 12.4047 6.98928 12.261 6.98926C12.1174 6.98924 11.9752 7.01751 11.8424 7.07246C11.7097 7.12741 11.5892 7.20796 11.4876 7.30951C11.386 7.41107 11.3054 7.53163 11.2504 7.66433C11.1954 7.79702 11.1671 7.93925 11.1671 8.08288C11.1671 8.22652 11.1954 8.36875 11.2503 8.50146C11.3053 8.63417 11.3858 8.75476 11.4874 8.85634C11.5889 8.95791 11.7095 9.0385 11.8422 9.09348Z" fill="white"/>
<path d="M32.4031 21.9194C32.5047 22.0209 32.6252 22.1015 32.7579 22.1565C32.8906 22.2115 33.0328 22.2398 33.1765 22.2398C33.3201 22.2398 33.4623 22.2115 33.595 22.1565C33.7277 22.1015 33.8482 22.0209 33.9498 21.9194L41.2418 14.6273C41.4469 14.4222 41.5621 14.1441 41.5621 13.854C41.5621 13.564 41.4469 13.2858 41.2418 13.0807C41.0367 12.8756 40.7585 12.7604 40.4685 12.7604C40.1784 12.7604 39.9003 12.8756 39.6952 13.0807L33.1764 19.5994L30.3042 16.7267C30.0985 16.5247 29.8213 16.4121 29.533 16.4134C29.2447 16.4147 28.9685 16.5298 28.7647 16.7337C28.5608 16.9376 28.4457 17.2137 28.4443 17.5021C28.443 17.7904 28.5557 18.0676 28.7577 18.2733L32.4031 21.9194Z" fill="white"/>
</svg>
