<svg width="70" height="70" viewBox="0 0 70 70" fill="none" xmlns="http://www.w3.org/2000/svg">
<g clip-path="url(#clip0_13324_17814)">
<path d="M7.94914 49.2187H10.3005C8.58652 45.1452 7.90665 40.711 8.32143 36.3111C8.73621 31.9112 10.2328 27.6822 12.6778 24.0008C15.1229 20.3193 18.4405 17.2998 22.3351 15.211C26.2298 13.1223 30.5806 12.0293 35 12.0293C39.4194 12.0293 43.7702 13.1223 47.6649 15.211C51.5596 17.2998 54.8772 20.3193 57.3222 24.0008C59.7673 27.6822 61.2638 31.9112 61.6786 36.3111C62.0934 40.711 61.4135 45.1452 59.6996 49.2187H62.0509C63.7403 44.8282 64.3356 40.0925 63.7855 35.4205C63.2354 30.7485 61.5564 26.2806 58.8934 22.4026C56.2304 18.5246 52.6635 15.3531 48.5007 13.1618C44.3379 10.9706 39.7043 9.82556 35 9.82556C30.2957 9.82556 25.6621 10.9706 21.4993 13.1618C17.3365 15.3531 13.7696 18.5246 11.1066 22.4026C8.44365 26.2806 6.76461 30.7485 6.21449 35.4205C5.66437 40.0925 6.25974 44.8282 7.94914 49.2187Z" fill="white"/>
<path d="M66.7188 51.4063H51.4062V44.8438C51.4045 42.5449 50.7992 40.2868 49.6509 38.2953C48.5026 36.3037 46.8515 34.6486 44.8627 33.4955C44.3933 34.0886 43.8718 34.6384 43.3044 35.1386C45.0845 36.0594 46.5775 37.4516 47.6205 39.163C48.6635 40.8745 49.2163 42.8396 49.2188 44.8438V51.4063H20.7812V44.8438C20.7837 42.8396 21.3365 40.8745 22.3795 39.163C23.4225 37.4516 24.9155 36.0594 26.6956 35.1386C26.1282 34.6384 25.6067 34.0886 25.1373 33.4955C23.1485 34.6486 21.4974 36.3037 20.3491 38.2953C19.2008 40.2868 18.5955 42.5449 18.5938 44.8438V51.4063H3.28125C2.4113 51.4073 1.57725 51.7533 0.962105 52.3684C0.346957 52.9836 0.000949589 53.8176 0 54.6876L0 66.7188C0.000949589 67.5888 0.346957 68.4228 0.962105 69.038C1.57725 69.6531 2.4113 69.9991 3.28125 70.0001H66.7188C67.5887 69.9991 68.4227 69.6531 69.0379 69.038C69.653 68.4228 69.9991 67.5888 70 66.7188V54.6876C69.9991 53.8176 69.653 52.9836 69.0379 52.3684C68.4227 51.7533 67.5887 51.4073 66.7188 51.4063ZM67.8125 66.7188C67.8122 67.0088 67.6968 67.2868 67.4918 67.4918C67.2867 67.6969 67.0087 67.8122 66.7188 67.8126H3.28125C2.99127 67.8122 2.71326 67.6969 2.50822 67.4918C2.30317 67.2868 2.18783 67.0088 2.1875 66.7188V54.6876C2.18783 54.3976 2.30317 54.1196 2.50822 53.9145C2.71326 53.7095 2.99127 53.5941 3.28125 53.5938H66.7188C67.0087 53.5941 67.2867 53.7095 67.4918 53.9145C67.6968 54.1196 67.8122 54.3976 67.8125 54.6876V66.7188Z" fill="white"/>
<path d="M38.0646 57.8952L37.3292 57.7828L36.9802 57.0393C36.8036 56.6632 36.5236 56.3451 36.173 56.1224C35.8223 55.8996 35.4154 55.7812 34.9999 55.7812C34.5845 55.7812 34.1776 55.8996 33.8269 56.1224C33.4762 56.3451 33.1963 56.6632 33.0197 57.0393L32.6707 57.7828L31.9352 57.8952C31.5377 57.956 31.1646 58.1251 30.8569 58.3841C30.5493 58.6431 30.3189 58.9818 30.1913 59.3632C30.0636 59.7445 30.0435 60.1537 30.1333 60.5457C30.223 60.9377 30.4191 61.2974 30.6999 61.5853L31.2961 62.1963L31.1511 63.0853C31.085 63.4905 31.1342 63.9062 31.2932 64.2847C31.4522 64.6632 31.7145 64.9893 32.0502 65.2258C32.3858 65.4622 32.7812 65.5995 33.1911 65.6218C33.6011 65.6441 34.009 65.5506 34.3683 65.3519L34.9999 65.0028L35.6315 65.352C35.9908 65.5506 36.3988 65.6441 36.8087 65.6218C37.2187 65.5994 37.6141 65.4622 37.9497 65.2258C38.2853 64.9893 38.5476 64.6632 38.7066 64.2847C38.8656 63.9062 38.9149 63.4905 38.8488 63.0853L38.7038 62.1963L39.3 61.5853C39.5808 61.2974 39.7769 60.9377 39.8666 60.5457C39.9563 60.1537 39.9363 59.7445 39.8086 59.3632C39.6809 58.9819 39.4506 58.6431 39.1429 58.3841C38.8353 58.1251 38.4622 57.956 38.0646 57.8952ZM36.6898 63.4375L34.9999 62.5033L33.31 63.4375L33.6328 61.4589L32.2656 60.0577L34.155 59.769L34.9999 57.9688L35.8449 59.769L37.7342 60.0576L36.3671 61.4589L36.6898 63.4375Z" fill="white"/>
<path d="M50.6427 57.8952L49.9073 57.7828L49.5583 57.0393C49.3818 56.6632 49.1018 56.3451 48.7511 56.1224C48.4004 55.8996 47.9935 55.7812 47.5781 55.7812C47.1626 55.7812 46.7557 55.8996 46.405 56.1224C46.0544 56.3451 45.7744 56.6632 45.5978 57.0393L45.2488 57.7828L44.5134 57.8952C44.1158 57.956 43.7427 58.1251 43.4351 58.3841C43.1274 58.6431 42.8971 58.9818 42.7694 59.3632C42.6417 59.7445 42.6217 60.1537 42.7114 60.5457C42.8011 60.9377 42.9972 61.2974 43.278 61.5853L43.8742 62.1963L43.7292 63.0853C43.6631 63.4905 43.7124 63.9062 43.8714 64.2847C44.0304 64.6632 44.2927 64.9893 44.6283 65.2258C44.9639 65.4622 45.3593 65.5995 45.7693 65.6218C46.1792 65.6441 46.5872 65.5506 46.9465 65.3519L47.5781 65.0028L48.2096 65.352C48.569 65.5506 48.9769 65.6441 49.3869 65.6218C49.7968 65.5994 50.1922 65.4622 50.5278 65.2258C50.8634 64.9893 51.1257 64.6632 51.2847 64.2847C51.4437 63.9062 51.493 63.4905 51.4269 63.0853L51.2819 62.1963L51.8781 61.5853C52.1589 61.2974 52.355 60.9377 52.4447 60.5457C52.5345 60.1537 52.5144 59.7445 52.3867 59.3632C52.259 58.9819 52.0287 58.6431 51.7211 58.3841C51.4134 58.1251 51.0403 57.956 50.6427 57.8952ZM49.268 63.4375L47.5781 62.5033L45.8882 63.4375L46.2109 61.4589L44.8438 60.0577L46.7331 59.769L47.5781 57.9688L48.423 59.769L50.3123 60.0576L48.9452 61.4589L49.268 63.4375Z" fill="white"/>
<path d="M63.2209 57.8952L62.4854 57.7828L62.1364 57.0393C61.9599 56.6632 61.6799 56.3451 61.3292 56.1224C60.9785 55.8996 60.5716 55.7812 60.1562 55.7812C59.7407 55.7812 59.3338 55.8996 58.9832 56.1224C58.6325 56.3451 58.3525 56.6632 58.176 57.0393L57.827 57.7828L57.0915 57.8952C56.694 57.956 56.3209 58.1251 56.0132 58.3841C55.7055 58.6431 55.4752 58.9818 55.3475 59.3632C55.2199 59.7445 55.1998 60.1537 55.2895 60.5457C55.3793 60.9377 55.5753 61.2974 55.8562 61.5853L56.4523 62.1963L56.3073 63.0853C56.2412 63.4905 56.2905 63.9061 56.4495 64.2847C56.6085 64.6632 56.8708 64.9893 57.2064 65.2258C57.542 65.4622 57.9374 65.5995 58.3474 65.6218C58.7573 65.6441 59.1653 65.5506 59.5246 65.3519L60.1562 65.0028L60.7878 65.3519C61.1471 65.5506 61.555 65.6441 61.965 65.6217C62.3749 65.5994 62.7703 65.4622 63.1059 65.2257C63.4415 64.9893 63.7039 64.6632 63.8629 64.2847C64.0219 63.9061 64.0711 63.4905 64.005 63.0853L63.86 62.1963L64.4562 61.5853C64.7371 61.2974 64.9331 60.9377 65.0228 60.5457C65.1126 60.1537 65.0925 59.7445 64.9648 59.3632C64.8372 58.9818 64.6068 58.6431 64.2992 58.3841C63.9915 58.1251 63.6184 57.956 63.2209 57.8952ZM61.8461 63.4375L60.1562 62.5033L58.4663 63.4375L58.789 61.4589L57.4219 60.0576L59.3112 59.769L60.1562 57.9688L61.0011 59.769L62.8905 60.0576L61.5233 61.4589L61.8461 63.4375Z" fill="white"/>
<path d="M12.9084 57.8952L12.1729 57.7828L11.8239 57.0393C11.6474 56.6632 11.3674 56.3451 11.0167 56.1224C10.666 55.8996 10.2592 55.7812 9.84369 55.7812C9.42822 55.7812 9.02135 55.8996 8.67067 56.1224C8.31999 56.3451 8.04 56.6632 7.86347 57.0393L7.51446 57.7828L6.77899 57.8952C6.38145 57.956 6.00835 58.1251 5.70068 58.3841C5.39302 58.6431 5.1627 58.9818 5.03503 59.3632C4.90736 59.7445 4.88729 60.1537 4.97702 60.5457C5.06675 60.9377 5.26281 61.2974 5.54365 61.5853L6.13983 62.1963L5.99483 63.0853C5.92873 63.4905 5.97799 63.9062 6.13698 64.2847C6.29598 64.6632 6.55829 64.9893 6.89391 65.2258C7.22954 65.4622 7.62494 65.5995 8.03489 65.6218C8.44484 65.6441 8.85279 65.5506 9.2121 65.3519L9.84368 65.0028L10.4753 65.352C10.8346 65.5506 11.2425 65.6441 11.6525 65.6218C12.0624 65.5994 12.4578 65.4622 12.7934 65.2258C13.1291 64.9893 13.3914 64.6632 13.5504 64.2847C13.7094 63.9062 13.7586 63.4905 13.6925 63.0853L13.5475 62.1963L14.1437 61.5853C14.4246 61.2974 14.6206 60.9377 14.7103 60.5457C14.8001 60.1537 14.78 59.7445 14.6523 59.3632C14.5247 58.9819 14.2943 58.6431 13.9867 58.3841C13.679 58.1251 13.3059 57.956 12.9084 57.8952ZM11.5336 63.4375L9.84368 62.5033L8.15379 63.4375L8.47653 61.4589L7.10937 60.0577L8.99874 59.769L9.84368 57.9688L10.6886 59.769L12.578 60.0576L11.2108 61.4589L11.5336 63.4375Z" fill="white"/>
<path d="M25.4865 57.8952L24.751 57.7828L24.402 57.0393C24.2255 56.6632 23.9455 56.3451 23.5948 56.1224C23.2442 55.8996 22.8373 55.7812 22.4218 55.7812C22.0063 55.7812 21.5995 55.8996 21.2488 56.1224C20.8981 56.3451 20.6181 56.6632 20.4416 57.0393L20.0926 57.7828L19.3571 57.8952C18.9596 57.956 18.5865 58.1251 18.2788 58.3841C17.9711 58.6431 17.7408 58.9818 17.6132 59.3632C17.4855 59.7445 17.4654 60.1537 17.5551 60.5457C17.6449 60.9377 17.8409 61.2974 18.1218 61.5853L18.718 62.1963L18.573 63.0853C18.5069 63.4905 18.5561 63.9062 18.7151 64.2847C18.8741 64.6632 19.1364 64.9893 19.472 65.2258C19.8077 65.4622 20.2031 65.5995 20.613 65.6218C21.023 65.6441 21.4309 65.5506 21.7902 65.3519L22.4218 65.0028L23.0534 65.352C23.4127 65.5506 23.8207 65.6441 24.2306 65.6218C24.6405 65.5994 25.0359 65.4622 25.3716 65.2258C25.7072 64.9893 25.9695 64.6632 26.1285 64.2847C26.2875 63.9062 26.3368 63.4905 26.2707 63.0853L26.1257 62.1963L26.7218 61.5853C27.0027 61.2974 27.1987 60.9377 27.2885 60.5457C27.3782 60.1537 27.3581 59.7445 27.2305 59.3632C27.1028 58.9819 26.8725 58.6431 26.5648 58.3841C26.2571 58.1251 25.884 57.956 25.4865 57.8952ZM24.1117 63.4375L22.4218 62.5033L20.7319 63.4375L21.0547 61.4589L19.6875 60.0577L21.5769 59.769L22.4218 57.9688L23.2667 59.769L25.1561 60.0576L23.789 61.4589L24.1117 63.4375Z" fill="white"/>
<path d="M24.6094 25.7031C24.6094 27.7582 25.2188 29.7671 26.3605 31.4758C27.5022 33.1846 29.125 34.5164 31.0237 35.3028C32.9223 36.0893 35.0115 36.295 37.0271 35.8941C39.0427 35.4932 40.8941 34.5036 42.3473 33.0504C43.8004 31.5973 44.79 29.7458 45.191 27.7302C45.5919 25.7147 45.3861 23.6254 44.5997 21.7268C43.8132 19.8282 42.4815 18.2054 40.7727 17.0636C39.064 15.9219 37.0551 15.3125 35 15.3125C32.2452 15.3156 29.6041 16.4114 27.6562 18.3593C25.7082 20.3072 24.6125 22.9483 24.6094 25.7031ZM43.2031 25.7031C43.2031 27.3255 42.722 28.9115 41.8207 30.2605C40.9193 31.6095 39.6381 32.6609 38.1392 33.2818C36.6403 33.9027 34.9909 34.0651 33.3997 33.7486C31.8084 33.4321 30.3467 32.6508 29.1995 31.5036C28.0523 30.3564 27.271 28.8947 26.9545 27.3035C26.638 25.7122 26.8004 24.0629 27.4213 22.5639C28.0422 21.065 29.0936 19.7838 30.4426 18.8825C31.7916 17.9811 33.3776 17.5 35 17.5C37.1749 17.5024 39.26 18.3675 40.7978 19.9053C42.3357 21.4432 43.2007 23.5283 43.2031 25.7031Z" fill="white"/>
<path d="M35 7.65625C35.2901 7.65624 35.5683 7.541 35.7734 7.33588C35.9785 7.13077 36.0937 6.85258 36.0938 6.5625V1.09375C36.0938 0.803669 35.9785 0.52547 35.7734 0.320352C35.5683 0.115234 35.2901 0 35 0C34.7099 0 34.4317 0.115234 34.2266 0.320352C34.0215 0.52547 33.9062 0.803669 33.9062 1.09375V6.5625C33.9063 6.85258 34.0215 7.13077 34.2266 7.33588C34.4317 7.541 34.7099 7.65624 35 7.65625Z" fill="white"/>
<path d="M60.1562 19.1286C60.4446 19.1323 60.7228 19.0214 60.9296 18.8202L65.3046 14.4452C65.5087 14.2399 65.6232 13.962 65.6228 13.6725C65.6224 13.383 65.5072 13.1054 65.3025 12.9006C65.0977 12.6959 64.8202 12.5807 64.5306 12.5803C64.2411 12.5799 63.9632 12.6944 63.7579 12.8986L59.3829 17.2736C59.2282 17.4249 59.1225 17.6191 59.0793 17.8312C59.0362 18.0433 59.0576 18.2634 59.1409 18.4631C59.2242 18.6629 59.3654 18.833 59.5464 18.9517C59.7274 19.0703 59.9398 19.1319 60.1562 19.1286Z" fill="white"/>
<path d="M9.07079 18.8202C9.27794 19.0214 9.55534 19.1339 9.84411 19.1339C10.1329 19.1339 10.4103 19.0214 10.6174 18.8202C10.719 18.7186 10.7996 18.5981 10.8546 18.4654C10.9096 18.3327 10.9379 18.1905 10.9379 18.0469C10.9379 17.9032 10.9096 17.761 10.8546 17.6283C10.7996 17.4956 10.719 17.3751 10.6174 17.2736L6.24243 12.8986C6.0372 12.6941 5.75923 12.5794 5.46954 12.5797C5.17986 12.58 4.90211 12.6952 4.69727 12.9C4.49243 13.1049 4.37723 13.3826 4.37695 13.6723C4.37668 13.962 4.49135 14.24 4.6958 14.4452L9.07079 18.8202Z" fill="white"/>
</g>
<defs>
<clipPath id="clip0_13324_17814">
<rect width="70" height="70" fill="white"/>
</clipPath>
</defs>
</svg>
