<svg width="18" height="18" viewBox="0 0 18 18" fill="none" xmlns="http://www.w3.org/2000/svg">
<g clip-path="url(#clip0_13329_1384)">
<path d="M5.83663 1.05461C6.12784 1.05461 6.36394 0.818516 6.36394 0.527304C6.36394 0.236091 6.12784 0 5.83663 0H2.67281C2.3816 0 2.14551 0.236091 2.14551 0.527304C2.14551 0.818516 2.3816 1.05461 2.67281 1.05461H5.83663Z" fill="#0678E3"/>
<path d="M0.000976562 2.63668C0.000976562 2.92789 0.237068 3.16398 0.52828 3.16398H3.72726C4.01847 3.16398 4.25456 2.92789 4.25456 2.63668C4.25456 2.34547 4.01847 2.10938 3.72726 2.10938H0.52828C0.237068 2.10938 0.000976562 2.34547 0.000976562 2.63668Z" fill="#0678E3"/>
<path d="M9.0387 16.454C9.03887 16.4539 9.03905 16.4537 9.03922 16.4534C9.03943 16.4532 9.03965 16.4531 9.03986 16.4529L12.1431 13.3301C13.1477 13.9749 14.5223 13.8777 15.4274 12.9727L16.9188 11.4813C18.3579 10.0421 18.3579 7.70038 16.9188 6.26123L12.4445 1.78688C11.0053 0.347732 8.66364 0.347732 7.22445 1.78688L5.73303 3.27831C4.81545 4.19585 4.72314 5.6053 5.41376 6.62085L4.02998 8.00464L3.90701 5.89644C3.8643 5.07385 3.18657 4.3969 2.32725 4.3969C1.47351 4.3969 0.780805 5.07096 0.746671 5.91416L0.0330539 12.1516C-0.142608 13.7484 0.408951 15.3166 1.54634 16.454C3.6075 18.5152 6.97775 18.515 9.0387 16.454ZM6.47874 4.02406L7.97017 2.5326C8.99813 1.50464 10.6708 1.50464 11.6988 2.5326L16.1731 7.00691C17.201 8.0349 17.201 9.70755 16.1731 10.7355L14.6817 12.2269C14.2006 12.708 13.4934 12.8113 12.916 12.5523L14.6316 10.826C14.9304 10.5272 15.095 10.1299 15.095 9.70737C15.095 9.28482 14.9304 8.88759 14.6316 8.58882C14.4881 8.44536 14.322 8.33283 14.1412 8.25465C14.4858 7.65074 14.4007 6.86647 13.8859 6.35168C13.7403 6.20607 13.573 6.09534 13.3945 6.01846C13.7398 5.41438 13.6553 4.62965 13.1402 4.11451C12.6204 3.59469 11.8359 3.51535 11.236 3.85971C11.1592 3.68134 11.0485 3.51422 10.903 3.36876C10.2862 2.75199 9.28263 2.75199 8.66586 3.36876L6.18289 5.85173C5.89003 5.26902 5.97619 4.52658 6.47874 4.02406ZM1.08109 12.2691C1.84399 5.59384 1.79892 6.01097 1.80008 5.9658C1.80701 5.68151 2.03906 5.45154 2.32721 5.45154C2.60658 5.45154 2.83912 5.66865 2.85399 5.95451L3.04557 9.23909C3.05767 9.44642 3.19037 9.62736 3.38449 9.70122C3.57861 9.77507 3.798 9.72811 3.94484 9.58124L9.41153 4.11454C9.61718 3.909 9.9517 3.90896 10.1572 4.11454C10.3628 4.32012 10.3628 4.65454 10.1574 4.86015C9.78036 5.23717 7.84115 7.17638 7.1744 7.84314C6.96847 8.04907 6.96847 8.38292 7.1744 8.58885C7.38029 8.79478 7.71414 8.79478 7.92011 8.58885C9.30874 7.20022 10.2757 6.23325 11.6487 4.86025C11.8548 4.65415 12.1883 4.65415 12.3944 4.86025C12.6 5.06587 12.6 5.40039 12.3944 5.60597C12.147 5.85341 8.92213 9.07826 8.66582 9.33457C8.45989 9.54046 8.45989 9.87435 8.66582 10.0803C8.87172 10.2862 9.2056 10.2862 9.41153 10.0803C10.5142 8.97765 11.3518 8.13998 12.3944 7.09739C12.6006 6.89129 12.934 6.89132 13.1401 7.09739C13.3462 7.30346 13.3462 7.637 13.1401 7.8431L10.1572 10.826C9.95132 11.0319 9.95128 11.3658 10.1572 11.5717C10.3631 11.7776 10.697 11.7776 10.903 11.5717L13.1401 9.33453C13.3457 9.12892 13.6803 9.12892 13.8859 9.33453C14.0886 9.53733 14.0956 9.87052 13.8847 10.0814C12.6367 11.3293 9.84463 14.1384 8.29259 15.7087C6.63806 17.3628 3.94642 17.3626 2.29206 15.7083C1.38214 14.7984 0.94086 13.544 1.08109 12.2691Z" fill="#0678E3"/>
<path d="M17.4727 1.05461H16.9454V0.527304C16.9454 0.236091 16.7093 0 16.4181 0C16.1269 0 15.8908 0.236091 15.8908 0.527304V1.05461H15.3635C15.0723 1.05461 14.8362 1.2907 14.8362 1.58191C14.8362 1.87312 15.0723 2.10921 15.3635 2.10921H15.8908V2.63652C15.8908 2.92773 16.1269 3.16382 16.4181 3.16382C16.7093 3.16382 16.9454 2.92773 16.9454 2.63652V2.10921H17.4727C17.7639 2.10921 18 1.87312 18 1.58191C18 1.2907 17.7639 1.05461 17.4727 1.05461Z" fill="#0678E3"/>
<path d="M14.8005 16.4169C14.8005 16.1257 14.5644 15.8896 14.2732 15.8896H13.7459V15.3623C13.7459 15.0711 13.5098 14.835 13.2186 14.835C12.9274 14.835 12.6913 15.0711 12.6913 15.3623V15.8896H12.164C11.8728 15.8896 11.6367 16.1257 11.6367 16.4169C11.6367 16.7081 11.8728 16.9442 12.164 16.9442H12.6913V17.4715C12.6913 17.7627 12.9274 17.9988 13.2186 17.9988C13.5098 17.9988 13.7459 17.7627 13.7459 17.4715V16.9442H14.2732C14.5644 16.9442 14.8005 16.7081 14.8005 16.4169Z" fill="#0678E3"/>
</g>
<defs>
<clipPath id="clip0_13329_1384">
<rect width="18" height="18" fill="white"/>
</clipPath>
</defs>
</svg>
