<svg width="13" height="13" viewBox="0 0 13 13" fill="none" xmlns="http://www.w3.org/2000/svg">
<g clip-path="url(#clip0_11834_1088)">
<path d="M12.9769 5.99274C12.9769 5.65596 12.8624 5.33601 12.6628 5.11488C12.6551 5.1063 12.6468 5.09825 12.6379 5.0908L11.937 4.50048V2.67404C11.937 2.53383 11.8233 2.42015 11.6831 2.42015H9.46716L6.66477 0.0597038C6.57025 -0.0199013 6.43212 -0.0199013 6.33762 0.0597038L3.53523 2.42015H1.31928C1.17907 2.42015 1.06539 2.53383 1.06539 2.67404V4.50038L0.364443 5.09083C0.355601 5.09827 0.347285 5.10633 0.339548 5.1149C0.13989 5.33606 0.0253906 5.65604 0.0253906 5.99274V11.7222C0.0261801 12.4275 0.597811 12.9992 1.3032 13H11.6991C12.4044 12.9992 12.9761 12.4276 12.9769 11.7222V5.99274ZM8.75253 8.85742L12.4384 5.75293C12.4588 5.83122 12.4692 5.91185 12.4692 5.99277V11.7222C12.4692 11.8019 12.4568 11.8811 12.4324 11.9569L8.75253 8.85742ZM12.143 5.3378L11.9371 5.51122V5.16443L12.143 5.3378ZM6.50119 0.585887L8.67885 2.42015H4.32349L6.50119 0.585887ZM3.62778 2.92793H11.4292V5.93885L8.3584 8.52542L6.66485 7.09895C6.57033 7.01935 6.43219 7.01935 6.33769 7.09895L4.64414 8.52545L1.5732 5.93885V2.92793H3.62778ZM0.569942 11.9569C0.545547 11.881 0.533179 11.8019 0.533205 11.7222V5.99274C0.533179 5.91182 0.543547 5.83122 0.563995 5.7529L4.24986 8.85742L0.569942 11.9569ZM1.06539 5.51125L0.859389 5.3378L1.06534 5.16433L1.06539 5.51125ZM1.30323 12.4922C1.15128 12.4923 1.00273 12.4473 0.876468 12.3627L6.50119 7.62511L12.1259 12.3627C11.9997 12.4472 11.8511 12.4923 11.6991 12.4922H1.30323Z" fill="#077CEA"/>
</g>
<defs>
<clipPath id="clip0_11834_1088">
<rect width="13" height="13" fill="white"/>
</clipPath>
</defs>
</svg>
