<svg width="100" height="100" viewBox="0 0 100 100" fill="none" xmlns="http://www.w3.org/2000/svg">
<g clip-path="url(#clip0_13324_15801)">
<path d="M24.5873 54.093C25.4656 60.752 31.352 66.7793 42.1191 72.0316L44.058 72.9775L36.109 87.6533L34.3145 86.7437C11.5451 75.2018 0 58.8902 0 38.2617C0 31.1441 2.25937 24.9969 6.71582 19.9902C11.2348 14.9139 16.7188 12.3398 23.0166 12.3398C28.6754 12.3398 33.4738 14.3549 37.2785 18.3297C41.0584 22.2789 42.975 27.1842 42.975 32.9096C42.975 38.3197 41.0391 43.1412 37.2209 47.24C33.8533 50.8555 29.61 53.1553 24.5873 54.093ZM34.291 21.1893C31.2547 18.0172 27.5668 16.4754 23.0166 16.4754C17.8789 16.4754 13.5574 18.5246 9.80527 22.74C5.99004 27.026 4.13535 32.1031 4.13535 38.2619C4.13535 47.7164 6.79766 56.2521 12.0479 63.6316C17.0574 70.6725 24.5711 76.8887 34.3994 82.1277L38.3816 74.7758C26.4051 68.4996 20.3369 60.9551 20.3369 52.3297V50.4828L22.1719 50.275C27.1148 49.7154 31.0471 47.8008 34.1949 44.4215C37.3201 41.0664 38.8395 37.3006 38.8395 32.9098C38.8396 28.2207 37.3516 24.3871 34.291 21.1893Z" fill="#0678E3"/>
<path d="M80.7048 54.0869C81.5726 60.7514 87.4105 66.7818 98.0914 72.0348L100.001 72.9736L92.249 87.66L90.4367 86.7455C67.5632 75.2041 55.9656 58.8918 55.9656 38.2617C55.9656 31.1397 58.2539 24.9891 62.7666 19.9811C67.3355 14.911 72.8421 12.3401 79.1349 12.3401C84.8007 12.3401 89.5771 14.359 93.3312 18.341C97.0531 22.2887 98.9404 27.1902 98.9404 32.9098C98.9404 38.3201 97.0044 43.1416 93.1867 47.2402C89.8259 50.8479 85.6337 53.1457 80.7048 54.0869ZM90.3226 21.1779C87.3388 18.0135 83.6796 16.4752 79.1349 16.4752C73.9921 16.4752 69.6429 18.5274 65.8386 22.7492C61.9775 27.034 60.1007 32.108 60.1007 38.2617C60.1007 47.7147 62.7751 56.249 68.0486 63.6277C73.0804 70.667 80.6265 76.8822 90.4966 82.1207L94.3708 74.7801C82.4806 68.5018 76.4558 60.9557 76.4558 52.3295V50.4867L78.2861 50.2754C83.1275 49.7166 87.0115 47.8018 90.1609 44.4213C93.2861 41.0664 94.805 37.301 94.805 32.9096C94.8052 28.2147 93.3388 24.377 90.3226 21.1779Z" fill="#0678E3"/>
</g>
<defs>
<clipPath id="clip0_13324_15801">
<rect width="100" height="100" fill="white" transform="matrix(1 0 0 -1 0 100)"/>
</clipPath>
</defs>
</svg>
