<svg width="60" height="60" viewBox="0 0 60 60" fill="none" xmlns="http://www.w3.org/2000/svg">
<path fill-rule="evenodd" clip-rule="evenodd" d="M31.7081 13.3882H33.7698C34.2215 13.3882 34.5881 13.0212 34.5881 12.5697C34.5881 12.1167 34.2215 11.7511 33.7698 11.7511H31.7081C31.2564 11.7511 30.8891 12.1167 30.8891 12.5697C30.8891 13.0212 31.2563 13.3882 31.7081 13.3882ZM52.3751 38.3404C52.3751 37.7379 51.8861 37.249 51.2838 37.249C50.7371 37.249 50.26 37.6756 50.2002 38.2192C50.1497 38.679 49.7407 38.9859 49.2869 38.9416C48.8711 38.8967 48.5566 38.5455 48.5566 38.1275V37.0668C48.5566 36.4654 48.0676 35.9765 47.4652 35.9765C46.8643 35.9765 46.3752 36.4655 46.3752 37.0668C46.3752 37.5184 46.0086 37.8853 45.5562 37.8853C45.1045 37.8853 44.7379 37.5184 44.7379 37.0668V35.7942C44.7379 35.1929 44.2482 34.7028 43.6467 34.7028C43.0451 34.7028 42.556 35.1929 42.556 35.7942C42.556 36.2461 42.1894 36.6127 41.7377 36.6127C41.2859 36.6127 40.9194 36.246 40.9194 35.7942V26.884C40.9194 26.2817 40.429 25.7928 39.8281 25.7928C39.2266 25.7928 38.7376 26.2818 38.7376 26.884V43.3181C38.7379 43.7701 38.3711 44.1378 37.9193 44.1378C37.4675 44.1378 37.1003 43.7722 37.1003 43.3204L37.0939 38.8686C37.0398 38.3153 36.5669 37.8855 36.0096 37.8855H34.9191V43.8204L39.0036 49.9471C39.4132 50.5618 40.0204 50.8869 40.7592 50.8869H41.1018C41.5535 50.8869 41.9201 51.2536 41.9201 51.7054V55.3747H49.8297V51.7054C49.8297 51.2455 50.1893 50.8869 50.6825 50.8869C51.3221 50.8869 51.8442 50.4067 51.8976 49.7693L52.3753 44.0341V38.3404H52.3751ZM35.9869 48.3732H24.7675C24.9138 47.8831 25.0201 47.3911 25.0855 46.8989H35.0039L35.9869 48.3732ZM28.2491 50.0103H23.6002C23.0154 50.0103 22.6171 49.4057 22.848 48.8688C24.1673 45.7945 23.5791 42.7354 21.0474 39.5146C20.8897 39.3159 20.8349 39.0562 20.8968 38.8107L21.5329 36.2644C21.6237 35.8998 21.9509 35.6446 22.3266 35.6446H22.836C24.5607 35.6446 25.9637 34.2408 25.9637 32.5167V32.1901H21.174C20.9939 32.1901 20.8595 32.2698 20.7743 32.427L17.4173 38.5813V54.9193C17.4173 55.1703 17.6213 55.3745 17.8726 55.3745H22.9626C23.2138 55.3745 23.4179 55.1703 23.4179 54.9193V53.0105C23.4179 52.5441 23.8104 52.1671 24.2777 52.1931C26.3471 52.3012 27.6305 51.6016 28.2491 50.0103ZM19.237 31.8269L19.3369 31.6425C19.6437 31.0815 20.1637 30.7061 20.7702 30.5915V25.9302H19.237V31.8269ZM9.10323 24.2931H24.9666C25.7814 24.2931 26.445 23.6296 26.445 22.8144V12.7781H7.62423V22.8144C7.62423 23.6296 8.28771 24.2931 9.10323 24.2931ZM7.62423 9.87278V11.1409H26.445V9.87278C26.445 9.0575 25.7815 8.39509 24.9666 8.39509H23.007V9.47641C23.007 9.92821 22.6404 10.2949 22.1887 10.2949H19.0956C18.6439 10.2949 18.2773 9.92821 18.2773 9.47641V8.39509H15.7914V9.47641C15.7914 9.92821 15.4248 10.2949 14.9731 10.2949H11.8812C11.4281 10.2949 11.0622 9.92821 11.0622 9.47641V8.39509H9.10323C8.28771 8.39509 7.62423 9.0575 7.62423 9.87278ZM12.6995 8.6579V4.62554H14.1539V8.6579H12.6995ZM19.9145 8.6579V4.62554H21.3703V8.6579H19.9145ZM42.556 26.8839C42.556 25.3791 41.3331 24.1555 39.828 24.1555C38.3237 24.1555 37.1001 25.3789 37.1001 26.8839V36.4782C36.7644 36.3309 36.3951 36.2482 36.0094 36.2482H34.7365C33.9345 36.2482 33.2814 36.9006 33.2814 37.704V44.0677C33.2814 44.2294 33.33 44.3874 33.4193 44.5218L33.9125 45.2617H25.1544C25.0503 43.1225 24.1926 40.9693 22.5805 38.8235L22.9661 37.2793C25.5336 37.2095 27.6009 35.0997 27.6009 32.5165V31.8802C27.6009 31.1488 27.0049 30.553 26.2725 30.553H22.4074V25.9299H24.9665C26.6841 25.9299 28.0822 24.532 28.0822 22.8141V15.9643H42.2505C42.7023 15.9643 43.0687 16.3324 43.0687 16.7829V33.1275C42.8908 33.1656 42.7198 33.2215 42.5557 33.2934V26.8839H42.556ZM44.0392 10.5505C45.253 10.5505 46.2394 11.5381 46.2394 12.7518V34.6318C46.2057 34.6482 46.1718 34.6655 46.1388 34.6842C45.8567 34.0542 45.3423 33.5513 44.7063 33.2817V16.7832C44.7063 15.429 43.605 14.3277 42.2506 14.3277H28.0823V10.5505H44.0392ZM54.0125 38.3404V44.0677C54.0125 44.0907 54.0111 44.1137 54.009 44.1354L53.5291 49.9055C53.4264 51.127 52.5883 52.1035 51.4661 52.4169V56.1931C51.4661 56.6451 51.0995 57.0117 50.6478 57.0117H41.1017C40.6486 57.0117 40.2827 56.6451 40.2827 56.1931V52.4955C39.2047 52.3621 38.2598 51.7817 37.642 50.8552L37.0791 50.0103H29.973C29.2884 52.407 27.6067 53.7133 25.0553 53.8324V54.9195C25.0553 56.073 24.1167 57.0117 22.9627 57.0117H17.8727C16.7188 57.0117 15.7801 56.073 15.7801 54.9195V38.3719C15.7801 38.2354 15.814 38.1012 15.8808 37.98L17.5998 34.828V25.9301H9.10323C7.38567 25.9301 5.98755 24.5322 5.98755 22.8143V9.87278C5.98755 8.15498 7.38567 6.75806 9.10323 6.75806H11.0621V3.80701C11.0621 3.35486 11.428 2.98849 11.8811 2.98849H14.9729C15.4246 2.98849 15.7912 3.35486 15.7912 3.80701V6.75806H18.2771V3.80701C18.2771 3.35486 18.6437 2.98849 19.0954 2.98849H22.1885C22.6402 2.98849 23.0068 3.35486 23.0068 3.80701V6.75806H24.9664C26.349 6.75806 27.5241 7.66369 27.9294 8.91349H44.0391C46.1556 8.91349 47.8767 10.6355 47.8767 12.7519V34.3698C48.8062 34.5117 49.5844 35.124 49.9566 35.9555C51.7566 34.9536 54.0125 36.2493 54.0125 38.3404ZM21.333 15.8503L16.3703 22.2262C16.0619 22.6234 15.4708 22.6515 15.1263 22.2817L12.7831 19.7704C12.4743 19.4398 12.4919 18.9225 12.8225 18.6138C13.1532 18.306 13.6719 18.3233 13.9793 18.6543L15.6681 20.4636L20.0418 14.8451C20.3197 14.4883 20.8333 14.424 21.1901 14.7011C21.547 14.9793 21.6117 15.4933 21.333 15.8503Z" fill="#0678E3"/>
</svg>
