<svg width="60" height="60" viewBox="0 0 60 60" fill="none" xmlns="http://www.w3.org/2000/svg">
<g clip-path="url(#clip0_13324_18026)">
<path d="M24.6511 53.1898L24.4749 54.0508L24.6447 53.1889C24.1686 53.095 23.7063 53.4049 23.6125 53.881C23.5186 54.3575 23.8285 54.8194 24.305 54.9133C24.3064 54.9137 24.3197 54.916 24.3211 54.9165C24.3769 54.927 24.4323 54.9325 24.4872 54.9325C24.9006 54.9325 25.2691 54.6395 25.3492 54.2184C25.4408 53.7414 25.1281 53.2809 24.6511 53.1898Z" fill="#0678E3"/>
<path d="M31.3717 53.4723L31.4591 54.3466L31.3689 53.4727C30.886 53.5222 30.5349 53.9538 30.5848 54.4368C30.631 54.889 31.0128 55.226 31.4578 55.226C31.488 55.226 31.5186 55.2241 31.5489 55.2214L31.5731 55.2186C32.0538 55.1623 32.3948 54.7288 32.3412 54.2482C32.2872 53.768 31.8523 53.4219 31.3717 53.4723Z" fill="#0678E3"/>
<path d="M28.0069 53.583C28.0069 53.583 27.9945 53.5826 27.9941 53.5826C27.5098 53.5606 27.1051 53.9369 27.0831 54.4217C27.0616 54.9064 27.4425 55.317 27.9273 55.339C27.941 55.3399 27.9543 55.3399 27.968 55.3399C28.4349 55.3399 28.824 54.9723 28.8451 54.5009C28.867 54.0161 28.4921 53.605 28.0069 53.583Z" fill="#0678E3"/>
<path d="M21.4049 52.2968L21.3939 52.2926C20.937 52.1288 20.439 52.3677 20.2751 52.8246C20.1108 53.2814 20.3534 53.7868 20.8102 53.9511C20.9087 53.9864 21.0089 54.0028 21.1073 54.0028C21.4676 54.0028 21.8059 53.7799 21.9345 53.421C22.0988 52.9642 21.8617 52.4606 21.4049 52.2968Z" fill="#0678E3"/>
<path d="M34.6885 52.857L34.905 53.7089L34.6857 52.8579C34.2156 52.9788 33.9327 53.458 34.0535 53.9282C34.1556 54.3246 34.5127 54.5882 34.9041 54.5882C34.9768 54.5882 35.0505 54.5791 35.1242 54.5599C35.1279 54.559 35.1435 54.5548 35.1476 54.5539C35.6141 54.4267 35.8869 53.9474 35.7624 53.48C35.6379 53.0131 35.1567 52.7352 34.6885 52.857Z" fill="#0678E3"/>
<path d="M37.8659 51.7488L38.2143 52.5554L37.8632 51.7497C37.4182 51.9438 37.2145 52.4615 37.4082 52.9065C37.5524 53.2374 37.8755 53.4347 38.2147 53.4347C38.3315 53.4347 38.451 53.4109 38.5649 53.3615C38.5686 53.3597 38.5828 53.3537 38.5865 53.3519C39.0273 53.1527 39.2218 52.6364 39.025 52.1946C38.8282 51.7524 38.309 51.5542 37.8659 51.7488Z" fill="#0678E3"/>
<path d="M18.0475 11.6835C18.1885 11.6835 18.3318 11.6496 18.4641 11.5791C18.8925 11.3507 19.0541 10.8183 18.8257 10.3899C18.5973 9.96184 18.0654 9.79934 17.6369 10.0282L17.6264 10.0337C17.1984 10.2621 17.0413 10.7918 17.2698 11.2202C17.4272 11.5159 17.733 11.6835 18.0475 11.6835Z" fill="#0678E3"/>
<path d="M7.88093 21.5003C8.01139 21.5685 8.15101 21.601 8.2888 21.601C8.60511 21.601 8.9109 21.4298 9.06791 21.13L9.08347 21.0993C9.29771 20.6635 9.11826 20.1366 8.68247 19.9229C8.24989 19.7095 7.72712 19.8853 7.51014 20.3152C7.28584 20.7445 7.45155 21.2751 7.88093 21.5003Z" fill="#0678E3"/>
<path d="M6.64443 24.8067C6.73782 24.8383 6.83257 24.8534 6.92641 24.8534C7.29262 24.8534 7.63457 24.6222 7.75863 24.256L7.77007 24.2212C7.91289 23.7575 7.65243 23.2654 7.18825 23.1231C6.7282 22.9812 6.23977 23.2366 6.09283 23.6944C5.93856 24.1535 6.1853 24.6515 6.64443 24.8067Z" fill="#0678E3"/>
<path d="M9.61577 18.4255C9.77187 18.539 9.95268 18.594 10.1321 18.594C10.4036 18.594 10.6718 18.4681 10.8435 18.2319L10.8549 18.2163C11.1369 17.8217 11.0449 17.2742 10.6512 16.9923C10.2571 16.7098 9.70778 16.8005 9.42488 17.1941L10.133 17.7151L9.42213 17.1978C9.13649 17.5906 9.22347 18.1403 9.61577 18.4255Z" fill="#0678E3"/>
<path d="M15.0638 13.5819C15.2482 13.5819 15.4341 13.5237 15.5929 13.4029C15.9848 13.1163 16.0695 12.5665 15.7829 12.1747C15.4959 11.7828 14.9461 11.6982 14.5547 11.9847L14.5328 12.0007C14.1464 12.2942 14.0695 12.8467 14.3629 13.2335C14.536 13.4615 14.7983 13.5819 15.0638 13.5819Z" fill="#0678E3"/>
<path d="M5.85904 38.1358C5.97532 38.5134 6.3223 38.7556 6.69767 38.7556C6.78327 38.7556 6.8707 38.7428 6.95676 38.7162C7.41818 38.5748 7.67865 38.0859 7.54041 37.6235C7.40811 37.1621 6.92975 36.8911 6.46421 37.0179C5.99591 37.1456 5.71988 37.629 5.8476 38.0973C5.85035 38.1065 5.8563 38.1266 5.85904 38.1358Z" fill="#0678E3"/>
<path d="M12.4093 15.8981C12.6377 15.8981 12.8661 15.8098 13.0387 15.634C13.3816 15.2907 13.3816 14.734 13.0387 14.3912C12.6954 14.0478 12.1388 14.0478 11.7954 14.3912L11.7808 14.4058C11.4411 14.7523 11.448 15.3081 11.7945 15.6477C11.9653 15.8153 12.1873 15.8981 12.4093 15.8981Z" fill="#0678E3"/>
<path d="M6.83083 34.3038C6.76903 33.8264 6.33278 33.4877 5.85488 33.5444C5.37331 33.6021 5.02907 34.0393 5.08629 34.5213L5.09133 34.5565C5.15542 34.9932 5.53032 35.3063 5.95925 35.3063C6.00136 35.3063 6.04439 35.3031 6.08788 35.2967C6.56624 35.2272 6.89812 34.7822 6.83083 34.3038Z" fill="#0678E3"/>
<path d="M5.72669 31.7866C5.73585 31.7866 5.74454 31.787 5.75324 31.787C6.22657 31.787 6.6175 31.4103 6.63123 30.9338L6.63215 30.8962C6.63215 30.4106 6.23847 30.0173 5.75324 30.0173C5.27122 30.0173 4.88029 30.4046 4.87434 30.8848C4.86152 31.3691 5.24284 31.7724 5.72669 31.7866Z" fill="#0678E3"/>
<path d="M5.91924 28.2619C5.97188 28.2711 6.02361 28.2757 6.07534 28.2757C6.49282 28.2757 6.86315 27.9767 6.93959 27.5515C6.94188 27.5387 6.94371 27.5258 6.94555 27.513C7.0165 27.0328 6.68462 26.5861 6.20397 26.5156C5.72927 26.4451 5.28478 26.7714 5.20834 27.2448C5.12502 27.7218 5.44271 28.1763 5.91924 28.2619Z" fill="#0678E3"/>
<path d="M47.3793 18.7029C47.5496 18.9501 47.8233 19.0824 48.1026 19.0824C48.2742 19.0824 48.4482 19.032 48.6001 18.9272C48.9998 18.6525 49.1009 18.105 48.8263 17.7049L48.0957 18.1938L48.8235 17.7008C48.5507 17.2989 48.0041 17.1941 47.6027 17.4665C47.2008 17.7388 47.0959 18.2854 47.3683 18.6873L47.3793 18.7029Z" fill="#0678E3"/>
<path d="M51.8675 27.5473C51.3851 27.6013 51.0381 28.0367 51.0925 28.5191L51.0971 28.5571C51.1598 28.9952 51.5361 29.3115 51.9664 29.3115C52.0076 29.3115 52.0497 29.3088 52.0918 29.3028C52.5684 29.2346 52.9007 28.7956 52.8389 28.3196C52.7835 27.8385 52.3468 27.4933 51.8675 27.5473Z" fill="#0678E3"/>
<path d="M50.3845 25.0671L50.3882 25.0786C50.5008 25.4617 50.851 25.7098 51.2309 25.7098C51.3129 25.7098 51.3962 25.6984 51.4791 25.6736C51.9451 25.5368 52.2115 25.0483 52.0746 24.5823L52.0709 24.5709C51.9341 24.1049 51.4456 23.8385 50.9796 23.9758C50.5141 24.1127 50.2477 24.6011 50.3845 25.0671Z" fill="#0678E3"/>
<path d="M49.1429 21.7809C49.2963 22.0926 49.6099 22.2744 49.9358 22.2744C50.0653 22.2744 50.1972 22.2455 50.3212 22.1842C50.7565 21.97 50.9374 21.4463 50.7227 21.0105L49.9262 21.3817L50.7218 21.0086C50.5158 20.5692 49.9925 20.3801 49.5531 20.5861C49.1136 20.7921 48.9241 21.3154 49.1301 21.7548L49.1429 21.7809Z" fill="#0678E3"/>
<path d="M45.1652 15.9582C45.3373 16.134 45.5648 16.2218 45.7928 16.2218C46.0148 16.2218 46.2368 16.1385 46.408 15.9705C46.7523 15.6336 46.76 15.0829 46.4282 14.7359C46.099 14.3812 45.5442 14.3597 45.1881 14.6883C44.8315 15.0175 44.8095 15.5737 45.1386 15.9303L45.1652 15.9582Z" fill="#0678E3"/>
<path d="M52.1528 31.2172C51.6699 31.2049 51.2657 31.5834 51.2487 32.0664C51.2268 32.5475 51.5962 32.9572 52.0777 32.9842C52.0947 32.9851 52.1107 32.9856 52.1276 32.9856C52.5904 32.9856 52.9782 32.6235 53.0043 32.1552L53.0056 32.119C53.0194 31.6342 52.6376 31.2314 52.1528 31.2172Z" fill="#0678E3"/>
<path d="M39.5445 11.6424L39.5655 11.6538C39.6964 11.7234 39.837 11.7564 39.9752 11.7564C40.2879 11.7564 40.5904 11.5879 40.7493 11.2926C40.9782 10.8665 40.817 10.3336 40.3922 10.1029L39.967 10.872L40.3895 10.1011C39.9638 9.86762 39.4296 10.0237 39.1961 10.4494C38.9631 10.8747 39.1187 11.4094 39.5445 11.6424Z" fill="#0678E3"/>
<path d="M42.5174 13.57L42.5312 13.5805C42.69 13.7009 42.8763 13.759 43.0617 13.759C43.3272 13.759 43.5895 13.6391 43.7625 13.4111C44.056 13.0243 43.98 12.4732 43.5936 12.1797L43.5877 12.1756C43.2027 11.8799 42.6511 11.9522 42.3554 12.3372C42.0597 12.7222 42.1324 13.2742 42.5174 13.57Z" fill="#0678E3"/>
<path d="M59.4574 44.5229L55.3316 40.3898C54.9805 40.0382 54.5141 39.8446 54.0174 39.8446C53.5212 39.8446 53.0543 40.0382 52.7036 40.3898L52.6079 40.4855L52.3369 40.2145C52.0023 39.8789 51.7432 39.4885 51.5674 39.0632C51.5519 39.0069 51.5313 38.952 51.5047 38.9002C51.3701 38.5221 51.3001 38.1197 51.3001 37.7064V36.5373C51.3802 36.5794 51.4677 36.61 51.5615 36.6261C51.6118 36.6348 51.6617 36.6389 51.7112 36.6389C52.1282 36.6389 52.4972 36.3413 52.5745 35.9184C52.6684 35.4432 52.3603 34.9813 51.8847 34.8861C51.6755 34.8445 51.4686 34.8806 51.2946 34.9749C51.2406 33.7261 50.7302 32.5598 49.8421 31.6699L45.8395 27.6603C44.9413 26.7608 43.747 26.2655 42.4767 26.2655C41.4935 26.2655 40.5569 26.5635 39.7668 27.1151L39.342 26.688V16.6356C39.342 15.4239 38.9021 14.2547 38.1037 13.3442C37.5356 12.697 37.223 11.8657 37.223 11.0032V10.2667H37.2834C38.3079 10.2667 39.1415 9.43312 39.1415 8.40819V2.56164C39.1415 1.53671 38.3079 0.703125 37.2834 0.703125H20.8657C19.8413 0.703125 19.0077 1.53671 19.0077 2.56164V8.40819C19.0077 9.43312 19.8413 10.2667 20.8657 10.2667H21.0012V10.6521C21.0012 11.5997 20.6327 12.4905 19.964 13.1602L18.192 14.9354C17.2517 15.8775 16.734 17.1295 16.734 18.4616V24.1319C16.734 24.9023 16.9189 25.6297 17.2444 26.2742C16.0789 26.3415 14.9926 26.8272 14.1604 27.6603L10.1578 31.6699C9.21751 32.6119 8.69978 33.8644 8.69978 35.196V37.7064C8.69978 38.654 8.33174 39.5448 7.66295 40.2145L7.39516 40.4827C7.39379 40.4836 7.39287 40.4845 7.39195 40.4855L7.29674 40.3898C6.94564 40.0382 6.47918 39.8446 5.9825 39.8446C5.48629 39.8446 5.01937 40.0382 4.66872 40.3898L0.542449 44.5229C-0.180816 45.2476 -0.180816 46.4268 0.542449 47.1514L1.95556 48.5664C2.29843 48.9101 2.85507 48.9106 3.19839 48.5677C3.54171 48.2244 3.54263 47.6682 3.1993 47.3244L1.78665 45.909C1.74682 45.8692 1.74682 45.8047 1.78665 45.7648L5.91292 41.6317C5.95138 41.5933 6.01409 41.5928 6.05254 41.6317L6.76986 42.3504H6.77031L16.5651 52.1621L17.6623 53.2616C17.7021 53.3014 17.7021 53.366 17.6623 53.4058L13.5365 57.539C13.4976 57.5779 13.4349 57.5779 13.3964 57.539L5.6877 49.817C5.34484 49.4732 4.7882 49.4727 4.44488 49.8156C4.1011 50.1589 4.10064 50.7151 4.4435 51.0589L12.1527 58.7809C12.5033 59.1324 12.9703 59.3261 13.4669 59.3261C13.9631 59.3261 14.4296 59.1324 14.7807 58.7809L18.9065 54.6477C19.6298 53.9235 19.6298 52.7444 18.9065 52.0197L18.8617 51.9749L19.3821 51.4535C19.99 50.8442 20.7975 50.478 21.6558 50.4226C22.8639 50.3443 24.0005 49.8289 24.8561 48.9715L28.6463 45.173C29.7395 44.8859 30.5905 43.9956 30.8216 42.8805C31.2112 43.0659 31.6465 43.1702 32.1061 43.1702C33.7591 43.1702 35.104 41.824 35.104 40.1687V38.0818C35.4821 38.2543 35.9019 38.3514 36.3441 38.3514C37.9971 38.3514 39.3415 37.0051 39.3415 35.3498V29.1801L42.0451 31.8969C42.2167 32.0695 42.4424 32.1556 42.6681 32.1556C42.8924 32.1556 43.1167 32.0704 43.2883 31.8997C43.6321 31.5573 43.6335 31.0011 43.2911 30.6568L41.0371 28.3918C41.4733 28.1515 41.965 28.0233 42.4767 28.0233C43.2769 28.0233 44.0295 28.3355 44.5953 28.9027L48.5979 32.9118C49.2068 33.522 49.5423 34.3331 49.5423 35.196V37.7064C49.5423 39.1232 50.093 40.4548 51.0927 41.4564L51.3656 41.7297L50.0907 43.0068L42.3801 50.7307L41.9503 50.2999C41.9457 50.2958 41.9416 50.2912 41.937 50.2871L41.8615 50.2111C40.9515 49.2997 39.7425 48.7517 38.458 48.6684C37.6766 48.6176 36.9415 48.2844 36.3853 47.7277L33.4973 44.8553C33.153 44.5129 32.5964 44.5142 32.254 44.8585C31.912 45.2027 31.9134 45.7593 32.2576 46.1013L35.1438 48.9715C35.9994 49.8289 37.136 50.3443 38.3445 50.4226C39.2024 50.478 40.0098 50.8442 40.6178 51.453L40.6603 51.4956C40.6832 51.5217 40.7075 51.5459 40.7331 51.5688L41.1382 51.9744L41.0934 52.0197C40.3701 52.7444 40.3701 53.9231 41.0934 54.6477L45.2192 58.7809C45.5703 59.1324 46.0368 59.3261 46.5334 59.3261C47.0296 59.3261 47.4966 59.1324 47.8477 58.7809L59.4574 47.1509C60.1807 46.4263 60.1807 45.2476 59.4574 44.5229ZM51.8893 35.7833L51.8728 35.7806L51.7126 35.7481L51.8893 35.7833ZM23.6119 47.7296C23.0584 48.2844 22.3233 48.6176 21.5423 48.6684C20.2574 48.7517 19.0484 49.2997 18.1384 50.2111L17.6198 50.7307L17.1528 50.2628C17.1469 50.2569 17.1409 50.2505 17.135 50.245L8.63432 41.7297L8.90715 41.4564C9.9069 40.4548 10.4576 39.1232 10.4576 37.7064V35.196C10.4576 34.3331 10.7927 33.522 11.402 32.9118L15.4046 28.9027C15.9704 28.3355 16.723 28.0233 17.5232 28.0233C18.0363 28.0233 18.5298 28.1524 18.9674 28.3946L16.7097 30.6559C16.3669 30.9992 16.3673 31.5559 16.7106 31.8987C16.8823 32.07 17.1071 32.1556 17.3318 32.1556C17.557 32.1556 17.7823 32.0695 17.9539 31.8978L20.6506 29.1961V40.1687C20.6506 41.824 21.9955 43.1702 23.6485 43.1702C24.1145 43.1702 24.5558 43.0631 24.9494 42.8727C25.128 43.7438 25.6846 44.4781 26.439 44.8965L23.6119 47.7296ZM37.5842 35.3503C37.5842 36.036 37.0275 36.594 36.3441 36.594C35.6602 36.594 35.104 36.036 35.104 35.3503V25.5464C35.104 25.0611 34.7108 24.6675 34.2251 24.6675C33.7394 24.6675 33.3462 25.0611 33.3462 25.5464V40.1692C33.3462 40.8549 32.79 41.4124 32.1061 41.4124C31.4923 41.4124 30.9828 40.9629 30.8843 40.3747V25.5363C30.8843 25.0506 30.4911 24.6574 30.0054 24.6574C29.8493 24.6574 29.7024 24.6986 29.5751 24.77C29.2973 24.9179 29.1082 25.2099 29.1082 25.5464V40.1687C29.1082 40.2804 29.1146 40.3898 29.1265 40.4983V42.2694C29.1265 42.9551 28.5704 43.5131 27.8865 43.5131C27.203 43.5131 26.6468 42.9551 26.6468 42.2694V25.5258C26.6468 25.0405 26.2532 24.6469 25.7679 24.6469C25.2822 24.6469 24.8886 25.0405 24.8886 25.5258V40.1687C24.8886 40.8544 24.3324 41.4124 23.6489 41.4124C22.965 41.4124 22.4089 40.8544 22.4089 40.1687V23.8197C22.4089 23.334 22.0152 22.9403 21.53 22.9403C21.0443 22.9403 20.6511 23.334 20.6511 23.8197V26.8437C20.5774 26.8675 20.5059 26.9009 20.4396 26.9448C19.3029 26.5177 18.4918 25.4182 18.4918 24.1319V18.4616C18.4918 17.5987 18.8273 16.7875 19.4362 16.1773L21.2082 14.4021C22.2084 13.4006 22.7591 12.0689 22.7591 10.6521V10.2667H24.526C25.0117 10.2667 25.4049 9.87303 25.4049 9.3878C25.4049 8.90212 25.0117 8.5089 24.526 8.5089H20.8657C20.8104 8.5089 20.7655 8.46358 20.7655 8.40819V2.56164C20.7655 2.50625 20.8104 2.46093 20.8657 2.46093H37.283C37.3388 2.46093 37.3837 2.50625 37.3837 2.56164V8.40819C37.3837 8.46404 37.3388 8.5089 37.283 8.5089H28.6523C28.1671 8.5089 27.7734 8.90212 27.7734 9.3878C27.7734 9.87303 28.1671 10.2667 28.6523 10.2667H35.4652V11.0032C35.4652 12.2923 35.9326 13.5351 36.7817 14.5038C37.299 15.0934 37.5842 15.8505 37.5842 16.6356V35.3503ZM58.2132 45.909L46.6035 57.539C46.5842 57.5586 46.5609 57.5683 46.5334 57.5683C46.5064 57.5683 46.4831 57.5586 46.4634 57.539L42.3376 53.4058C42.2977 53.366 42.2977 53.3014 42.3376 53.2616L43.0018 52.596L43.0022 52.5956L49.7419 45.8445L53.9474 41.6317C53.9858 41.5928 54.0485 41.5928 54.087 41.6317L58.2132 45.7648C58.2531 45.8047 58.2531 45.8692 58.2132 45.909Z" fill="#0678E3"/>
<path d="M23.6486 4.54749C23.1327 4.54749 22.7129 4.96817 22.7129 5.48498C22.7129 6.00226 23.1327 6.42248 23.6486 6.42248C24.1649 6.42248 24.5847 6.00226 24.5847 5.48498C24.5847 4.96817 24.1649 4.54749 23.6486 4.54749Z" fill="#0678E3"/>
<path d="M54.3053 44.6118C53.7889 44.6118 53.3691 45.0325 53.3691 45.5493C53.3691 46.0661 53.7889 46.4868 54.3053 46.4868C54.8212 46.4868 55.2409 46.0661 55.2409 45.5493C55.2409 45.0325 54.8212 44.6118 54.3053 44.6118Z" fill="#0678E3"/>
<path d="M14.6462 53.5785C14.6462 53.0617 14.2264 52.641 13.7105 52.641C13.1942 52.641 12.7744 53.0617 12.7744 53.5785C12.7744 54.0953 13.1942 54.516 13.7105 54.516C14.2264 54.516 14.6462 54.0953 14.6462 53.5785Z" fill="#0678E3"/>
</g>
<defs>
<clipPath id="clip0_13324_18026">
<rect width="60" height="60" fill="white"/>
</clipPath>
</defs>
</svg>
