<svg width="60" height="60" viewBox="0 0 60 60" fill="none" xmlns="http://www.w3.org/2000/svg">
<g clip-path="url(#clip0_13324_18016)">
<path d="M41 22C40.662 22 40.333 22.033 40 22.051V3.00002C40 2.20437 39.6839 1.44131 39.1213 0.878696C38.5587 0.316087 37.7957 1.65721e-05 37 1.65721e-05H8.41002C8.14809 -0.00105584 7.88856 0.0499305 7.64651 0.150014C7.40446 0.250097 7.1847 0.397281 7.00002 0.583017L0.583017 7.00002C0.397281 7.1847 0.250097 7.40446 0.150014 7.64651C0.0499305 7.88856 -0.00105584 8.14809 1.65721e-05 8.41002V49C1.65721e-05 49.7957 0.316087 50.5587 0.878696 51.1213C1.44131 51.6839 2.20437 52 3.00002 52H25.537C27.4257 54.6542 29.9653 56.7778 32.9118 58.1669C35.8583 59.556 39.1126 60.1638 42.3618 59.9318C45.6111 59.6998 48.746 58.6359 51.4653 56.8424C54.1846 55.0488 56.3968 52.5859 57.8893 49.6904C59.3817 46.7949 60.1042 43.5641 59.9873 40.3087C59.8705 37.0533 58.9181 33.8826 57.2219 31.1016C55.5256 28.3206 53.1425 26.0226 50.3016 24.4287C47.4607 22.8347 44.2575 21.9984 41 22ZM7.00002 3.41102V6.00002C7.00002 6.26523 6.89466 6.51959 6.70712 6.70712C6.51959 6.89466 6.26523 7.00002 6.00002 7.00002H3.41302L7.00002 3.41102ZM3.00002 50C2.7348 50 2.48045 49.8947 2.29291 49.7071C2.10537 49.5196 2.00002 49.2652 2.00002 49V9.00002H6.00002C6.79567 9.00002 7.55873 8.68395 8.12134 8.12134C8.68395 7.55873 9.00002 6.79567 9.00002 6.00002V2.00002H37C37.2652 2.00002 37.5196 2.10537 37.7071 2.29291C37.8947 2.48045 38 2.7348 38 3.00002V22.261C36.9819 22.4202 35.9785 22.6627 35 22.986V20C35 19.4696 34.7893 18.9609 34.4142 18.5858C34.0392 18.2107 33.5304 18 33 18H31C30.4696 18 29.9609 18.2107 29.5858 18.5858C29.2107 18.9609 29 19.4696 29 20V26.285C28.288 26.8742 27.6196 27.5142 27 28.2V16C27 15.4696 26.7893 14.9609 26.4142 14.5858C26.0392 14.2107 25.5305 14 25 14H23C22.4696 14 21.9609 14.2107 21.5858 14.5858C21.2107 14.9609 21 15.4696 21 16V35C21.002 35.4337 21.1449 35.855 21.4071 36.2004C21.6694 36.5458 22.0368 36.7966 22.454 36.915C22.2999 37.6031 22.1841 38.2991 22.107 39H7.00002C6.20558 39.004 5.44481 39.3213 4.88305 39.8831C4.3213 40.4448 4.00396 41.2056 4.00002 42C4.00002 42.7957 4.31609 43.5587 4.8787 44.1213C5.44131 44.6839 6.20437 45 7.00002 45H22.432C22.8061 46.7454 23.426 48.4288 24.273 50H3.00002ZM33 23.79C32.3123 24.1116 31.6445 24.4739 31 24.875V20H33V23.79ZM22.107 43H7.00002C6.7348 43 6.48045 42.8947 6.29291 42.7071C6.10537 42.5196 6.00002 42.2652 6.00002 42C6.00538 41.7365 6.11246 41.4852 6.29885 41.2989C6.48523 41.1125 6.73648 41.0054 7.00002 41H22C22.0008 41.6681 22.0365 42.3357 22.107 43ZM23 34.963V16H25V30.794C24.1657 32.0968 23.494 33.4969 23 34.963ZM41 58C37.6377 58 34.351 57.003 31.5553 55.135C28.7597 53.267 26.5808 50.612 25.2941 47.5056C24.0074 44.3993 23.6707 40.9812 24.3267 37.6835C24.9826 34.3858 26.6017 31.3567 28.9792 28.9792C31.3567 26.6017 34.3858 24.9826 37.6835 24.3267C40.9812 23.6707 44.3993 24.0074 47.5056 25.2941C50.612 26.5808 53.267 28.7597 55.135 31.5553C57.003 34.351 58 37.6377 58 41C57.995 45.5072 56.2023 49.8283 53.0153 53.0153C49.8282 56.2023 45.5072 57.995 41 58Z" fill="#0678E3"/>
<path d="M50.9129 31.581C50.5243 31.2049 50.0035 30.9964 49.4626 31.0003C48.9218 31.0042 48.4041 31.2203 48.0209 31.602L36.0919 43.471L33.9799 41.354C33.7899 41.1631 33.564 41.0117 33.3151 40.9087C33.0662 40.8057 32.7993 40.7531 32.5299 40.754C32.2603 40.7532 31.9931 40.8058 31.7439 40.9088C31.4947 41.0118 31.2683 41.1631 31.0779 41.354L29.5999 42.835C29.2169 43.2204 29.002 43.7417 29.002 44.285C29.002 44.8283 29.2169 45.3496 29.5999 45.735L33.9429 50.088C34.2296 50.3759 34.5702 50.6043 34.9454 50.7601C35.3205 50.9159 35.7227 50.9962 36.1289 50.9962C36.5352 50.9962 36.9374 50.9159 37.3125 50.7601C37.6876 50.6043 38.0283 50.3759 38.3149 50.088L52.3999 35.977C52.7827 35.5915 52.9975 35.0703 52.9975 34.527C52.9975 33.9837 52.7827 33.4625 52.3999 33.077L50.9129 31.581ZM50.9849 34.564L36.8999 48.68C36.6931 48.8792 36.4171 48.9905 36.1299 48.9905C35.8428 48.9905 35.5668 48.8792 35.3599 48.68L31.0169 44.248L32.5659 42.767L34.6789 44.884C35.0639 45.2677 35.5854 45.4832 36.1289 45.4832C36.6725 45.4832 37.1939 45.2677 37.5789 44.884L49.5079 33L50.9859 34.482C50.9964 34.4931 51.0022 34.5079 51.002 34.5232C51.0018 34.5385 50.9957 34.5531 50.9849 34.564Z" fill="#0678E3"/>
<path d="M7 37H9C9.53043 37 10.0391 36.7893 10.4142 36.4142C10.7893 36.0391 11 35.5304 11 35V22C11 21.4696 10.7893 20.9609 10.4142 20.5858C10.0391 20.2107 9.53043 20 9 20H7C6.46957 20 5.96086 20.2107 5.58579 20.5858C5.21071 20.9609 5 21.4696 5 22V35C5 35.5304 5.21071 36.0391 5.58579 36.4142C5.96086 36.7893 6.46957 37 7 37ZM7 22H9V35H7V22Z" fill="#0678E3"/>
<path d="M15 37H17C17.5304 37 18.0391 36.7893 18.4142 36.4142C18.7893 36.0391 19 35.5304 19 35V13C19 12.4696 18.7893 11.9609 18.4142 11.5858C18.0391 11.2107 17.5304 11 17 11H15C14.4696 11 13.9609 11.2107 13.5858 11.5858C13.2107 11.9609 13 12.4696 13 13V35C13 35.5304 13.2107 36.0391 13.5858 36.4142C13.9609 36.7893 14.4696 37 15 37ZM15 13H17V35H15V13Z" fill="#0678E3"/>
<path d="M50 47H49V46C49 45.7348 48.8946 45.4804 48.7071 45.2929C48.5196 45.1054 48.2652 45 48 45C47.7348 45 47.4804 45.1054 47.2929 45.2929C47.1054 45.4804 47 45.7348 47 46V47H46C45.7348 47 45.4804 47.1054 45.2929 47.2929C45.1054 47.4804 45 47.7348 45 48C45 48.2652 45.1054 48.5196 45.2929 48.7071C45.4804 48.8946 45.7348 49 46 49H47V50C47 50.2652 47.1054 50.5196 47.2929 50.7071C47.4804 50.8946 47.7348 51 48 51C48.2652 51 48.5196 50.8946 48.7071 50.7071C48.8946 50.5196 49 50.2652 49 50V49H50C50.2652 49 50.5196 48.8946 50.7071 48.7071C50.8946 48.5196 51 48.2652 51 48C51 47.7348 50.8946 47.4804 50.7071 47.2929C50.5196 47.1054 50.2652 47 50 47Z" fill="#0678E3"/>
</g>
<defs>
<clipPath id="clip0_13324_18016">
<rect width="60" height="60" fill="white"/>
</clipPath>
</defs>
</svg>
