<svg width="60" height="60" viewBox="0 0 60 60" fill="none" xmlns="http://www.w3.org/2000/svg">
<path d="M10.8985 12.7149L12.6446 16.3242L16.6055 16.8633C17.3907 16.9688 17.6719 17.9414 17.1329 18.457L14.2383 21.2344L14.9532 25.1719C15.0938 25.9453 14.2735 26.5313 13.5938 26.1563L10.0665 24.2578L6.53911 26.1563C5.85942 26.5195 5.00396 25.957 5.19146 25.1133L5.89458 21.2227L3.00005 18.4453C2.43755 17.9063 2.74224 16.9453 3.53911 16.8399L7.48833 16.3008L9.23443 12.6914C9.56255 12 10.5704 12.0117 10.8985 12.7149ZM11.1797 17.5899L10.0665 15.2695L8.94146 17.5899C8.81255 17.8594 8.54302 18.0703 8.22661 18.1172L5.68364 18.457L7.54693 20.2383C7.75786 20.4492 7.87505 20.7539 7.81646 21.0703L7.35942 23.6016L9.60942 22.3945C9.87896 22.2539 10.2188 22.2305 10.5001 22.3945L12.7618 23.6133L12.3165 21.1289C12.2461 20.8242 12.3282 20.4844 12.5743 20.2383L14.4375 18.457L11.918 18.1172C11.6133 18.082 11.3204 17.8828 11.1797 17.5899ZM30.8438 4.21876L32.5899 7.82813L36.5625 8.3672C37.3477 8.47267 37.629 9.44532 37.0899 9.97267L34.1954 12.75L34.9102 16.6875C35.0508 17.4609 34.2305 18.0469 33.5508 17.6719L30 15.7734L26.4727 17.6719C25.793 18.0352 24.9375 17.4727 25.125 16.6289L25.8282 12.7383L22.9219 9.96095C22.3594 9.42188 22.6641 8.46095 23.461 8.35548L27.4102 7.81642L29.1563 4.21876C29.5079 3.50392 30.504 3.51563 30.8438 4.21876ZM31.125 9.09376L30 6.77345L28.8868 9.09376C28.7579 9.36329 28.4883 9.57423 28.1719 9.6211L25.6172 9.96095L27.4805 11.7422C27.7032 11.9531 27.8086 12.2578 27.75 12.5742L27.293 15.1055L29.5547 13.8984C29.8243 13.7578 30.1524 13.7344 30.4454 13.8984L32.7071 15.1172L32.2618 12.6328C32.1915 12.3281 32.2735 11.9883 32.5196 11.7422L34.3829 9.96095L31.8633 9.60938C31.5469 9.58595 31.2657 9.38673 31.125 9.09376ZM50.7774 12.7149L52.5235 16.3242L56.4844 16.8633C57.2696 16.9688 57.5625 17.9414 57.0118 18.457L54.1172 21.2344L54.8321 25.1719C54.9727 25.9453 54.1524 26.5313 53.4727 26.1563L49.9454 24.2578L46.418 26.1563C45.7383 26.5195 44.8829 25.957 45.0586 25.1133L45.7618 21.2227L42.8672 18.4453C42.3047 17.9063 42.6094 16.9453 43.4063 16.8399L47.3555 16.3008L49.1016 12.6914C49.4415 12 50.4493 12.0117 50.7774 12.7149ZM51.0586 17.5899L49.9454 15.2695L48.8204 17.5899C48.6915 17.8594 48.4336 18.0703 48.1055 18.1172L45.5625 18.457L47.4141 20.2383C47.6251 20.4492 47.7422 20.7539 47.6836 21.0703L47.2266 23.6016L49.4883 22.3945C49.7579 22.2539 50.0977 22.2305 50.379 22.3945L52.6524 23.6133L52.2071 21.1289C52.1368 20.8242 52.2188 20.4844 52.4649 20.2383L54.3165 18.457L51.7969 18.1172C51.4922 18.082 51.1993 17.8828 51.0586 17.5899ZM25.6524 36.6445C25.3946 36.1992 25.5469 35.625 25.9922 35.3672C26.4375 35.1094 27.0118 35.2617 27.2696 35.707L28.5 37.8399L32.8711 33.4688C33.2344 33.1055 33.8321 33.1055 34.1954 33.4688C34.5586 33.832 34.5586 34.4297 34.1954 34.793L28.9571 40.0313C28.5235 40.4649 27.7969 40.3711 27.4922 39.8438L25.6524 36.6445ZM30 26.7422C35.0977 26.7422 39.2344 30.8789 39.2344 35.9766C39.2344 41.0742 35.0977 45.2109 30 45.2109C24.9024 45.2109 20.7657 41.0742 20.7657 35.9766C20.7657 30.8789 24.9024 26.7422 30 26.7422ZM35.2032 30.7734C32.3321 27.9024 27.668 27.9024 24.7969 30.7734C21.9258 33.6445 21.9258 38.3086 24.7969 41.1797C27.668 44.0508 32.3321 44.0508 35.2032 41.1797C38.0743 38.2969 38.0743 33.6445 35.2032 30.7734ZM30 20.9414C38.2969 20.9414 45.0235 27.668 45.0235 35.9649C45.0235 39.1055 44.0625 42.0234 42.4102 44.4375L46.8985 52.207C47.3321 52.9336 46.7344 53.7539 45.961 53.6367L41.3672 52.9102L38.9063 55.9336C38.4727 56.4961 37.6641 56.4024 37.3477 55.8399L34.2071 50.4024C31.4649 51.1992 28.5235 51.1992 25.793 50.4024L22.6524 55.8399C22.336 56.4024 21.5274 56.4961 21.0938 55.9336L18.6329 52.9102L14.0391 53.6367C13.254 53.7656 12.7032 52.9102 13.0782 52.2422L17.5899 44.4375C13.5118 38.4727 14.2735 30.4453 19.3829 25.3359C22.0899 22.6289 25.8516 20.9414 30 20.9414ZM41.168 46.0195C39.7383 47.6133 37.9805 48.8906 35.9883 49.7578L38.2852 53.7305L40.254 51.3164C40.4766 51.0352 40.8165 50.9297 41.1446 50.9883L44.3086 51.4922L41.168 46.0195ZM24 49.7578C22.0196 48.8906 20.2618 47.6133 18.8321 46.0313L15.6797 51.4922L18.8438 50.9883C19.1602 50.9297 19.5118 51.0469 19.7344 51.3164L21.7032 53.7305L24 49.7578ZM39.3047 26.6719C34.1719 21.5391 25.8399 21.5391 20.7071 26.6719C15.5743 31.8047 15.5743 40.1367 20.7071 45.2695C25.8516 50.4024 34.1719 50.4024 39.3047 45.2695C44.4375 40.1367 44.4375 31.8047 39.3047 26.6719Z" fill="#077CEA"/>
</svg>
