<svg width="60" height="60" viewBox="0 0 60 60" fill="none" xmlns="http://www.w3.org/2000/svg">
<g clip-path="url(#clip0_13324_18072)">
<path d="M57.3345 46.1465L47.9024 26.0072C47.6966 25.5676 47.1733 25.3783 46.7336 25.584C46.294 25.7899 46.1045 26.3133 46.3104 26.7528L55.7424 46.8917C56.1643 47.794 55.7738 48.8718 54.8719 49.2943L36.7879 57.7633C35.8862 58.1858 34.8086 57.7956 34.3859 56.8938L31.0049 49.6725L39.8049 28.4403C40.1852 27.5226 40.1639 26.4796 39.7467 25.5783L34.9332 15.1805L41.1726 17.1544C41.6528 17.3061 42.0503 17.6543 42.2635 18.1109L44.5747 23.0438C44.7241 23.3628 45.0408 23.5501 45.3713 23.5501C45.4961 23.5501 45.623 23.5232 45.7436 23.4669C46.1831 23.261 46.3725 22.7375 46.1665 22.2979L43.8557 17.3658C43.4352 16.4656 42.6501 15.7776 41.7023 15.4783L34.1777 13.0977C35.729 10.8315 37.3632 7.80117 37.9255 6.44448C39.3999 2.88711 38.2099 0.908742 36.6046 0.243348C34.9993 -0.421813 32.7588 0.134714 31.2843 3.69208C30.6502 5.22209 30.0683 8.55422 29.6546 11.4128C29.1621 11.4434 28.6671 11.5465 28.185 11.7308L16.8005 16.0806C15.8898 16.4287 15.1532 17.1449 14.7799 18.0455L2.60342 47.4252C2.23885 48.3048 2.23862 49.2736 2.60284 50.1533C2.96694 51.0331 3.65191 51.7183 4.5314 52.0827L8.09275 53.5587C8.54123 53.7446 9.05557 53.5317 9.24131 53.0833C9.42718 52.6348 9.21436 52.1206 8.76588 51.9347L5.20453 50.4586C4.75887 50.2739 4.41164 49.9267 4.22707 49.4808C4.0425 49.0349 4.04261 48.544 4.22742 48.0982L16.4042 18.7182C16.5935 18.2617 16.9667 17.8987 17.4283 17.7223L28.8128 13.3725C29.0084 13.2978 29.2073 13.2436 29.4071 13.2083C29.2984 14.0339 29.2103 14.7559 29.1465 15.2971C28.7738 15.3184 28.4045 15.4104 28.0561 15.5736C27.3377 15.9099 26.7934 16.5059 26.5234 17.2517C26.2533 17.9976 26.2899 18.8038 26.6262 19.5222C27.1304 20.5992 28.2027 21.2322 29.3201 21.2322C29.7412 21.2322 30.1689 21.1422 30.5748 20.9521C31.2932 20.6158 31.8375 20.0197 32.1077 19.274C32.3777 18.5281 32.3412 17.7218 32.0049 17.0035C31.7543 16.4686 31.3596 16.0306 30.8665 15.73C30.9319 15.1703 31.0316 14.345 31.1582 13.3841C31.919 13.6806 32.5694 14.2585 32.935 15.0484L38.1513 26.3164C38.3628 26.7731 38.3735 27.302 38.1807 27.767L26.0121 57.1272C25.8274 57.5729 25.4802 57.9201 25.0343 58.1047C24.5885 58.2894 24.0975 58.2891 23.6517 58.1044L12.7768 53.5973C12.3285 53.4112 11.8141 53.6242 11.6282 54.0727C11.4425 54.5212 11.6552 55.0354 12.1036 55.2212L22.9786 59.7284C23.4233 59.9128 23.8847 60 24.3387 60C25.7378 60 27.068 59.1711 27.636 57.8002L30.0933 51.8715L32.7938 57.6393C33.3993 58.9317 34.6864 59.6915 36.0271 59.6915C36.5327 59.6915 37.0462 59.5835 37.5335 59.3551L55.6175 50.8862C57.3968 50.0525 58.167 47.9266 57.3345 46.1465ZM30.4547 18.6754C30.3446 18.9796 30.1225 19.2228 29.8293 19.3601C29.2244 19.6435 28.5015 19.3817 28.2182 18.7768C28.081 18.4838 28.0661 18.1547 28.1762 17.8504C28.2864 17.5462 28.5085 17.303 28.8015 17.1657C28.9649 17.0891 29.1394 17.0507 29.3146 17.0507C29.4537 17.0507 29.5932 17.075 29.7278 17.1237C30.032 17.2339 30.2752 17.4559 30.4125 17.749C30.55 18.0422 30.565 18.3711 30.4547 18.6754ZM32.6695 12.1894C32.2755 11.9397 31.8487 11.7457 31.4025 11.6127C31.7989 8.86969 32.3425 5.7315 32.9088 4.36497C33.3076 3.40251 34.4006 1.23288 35.9319 1.86722C37.463 2.50192 36.7007 4.80888 36.3017 5.77123C35.7612 7.0753 34.1676 10.0224 32.6695 12.1894Z" fill="#0678E3"/>
<path d="M18.0952 29.636C19.9995 28.6225 22.1846 28.4109 24.2481 29.0411C27.673 30.0866 29.9719 33.1926 29.9686 36.7699C29.9682 37.2553 30.3613 37.6492 30.8468 37.6497C30.8471 37.6497 30.8473 37.6497 30.8476 37.6497C31.3327 37.6497 31.7262 37.2567 31.7267 36.7715C31.7286 34.7075 31.0572 32.6474 29.8363 30.9707C28.5734 29.2364 26.8185 27.9877 24.7612 27.3595C19.5746 25.7763 14.0671 28.7077 12.484 33.8941C11.717 36.4066 11.9744 39.0672 13.2087 41.3861C14.4429 43.7051 16.5062 45.4045 19.0186 46.1715C19.9576 46.4582 20.9254 46.6004 21.8915 46.6004C23.2653 46.6004 24.6346 46.3124 25.9075 45.7421C28.054 44.7805 29.7855 43.0848 30.783 40.9673C30.9899 40.5282 30.8016 40.0044 30.3625 39.7975C29.9234 39.5905 29.3996 39.7789 29.1927 40.218C27.4972 43.8172 23.3443 45.654 19.5321 44.49C17.4687 43.8602 15.7743 42.4645 14.7606 40.5602C13.7471 38.6559 13.5357 36.4707 14.1657 34.4073C14.7952 32.3441 16.191 30.6496 18.0952 29.636Z" fill="#0678E3"/>
<path d="M25.2708 34.3732C25.0605 33.9778 24.7087 33.6878 24.2801 33.5572L23.8809 33.4353L24.1521 32.5465C24.2938 32.0822 24.0324 31.5909 23.5682 31.4492C23.1037 31.3077 22.6126 31.569 22.4709 32.0331L22.1935 32.9421C21.0224 32.7399 19.8529 33.4355 19.4972 34.6011C19.3104 35.2129 19.3731 35.861 19.6737 36.4256C19.9742 36.9902 20.4768 37.4042 21.0885 37.5909L22.195 37.9286C22.3578 37.9783 22.4914 38.0884 22.5713 38.2386C22.6512 38.3887 22.6678 38.5611 22.6182 38.7239C22.5685 38.8865 22.4584 39.0201 22.3082 39.1001C22.1581 39.1801 21.9858 39.1967 21.823 39.1469L21.2699 38.9781L20.1039 38.6222C20.1954 38.1824 19.9378 37.7372 19.4997 37.6034C19.0351 37.462 18.544 37.7232 18.4023 38.1875C18.1324 39.0718 18.6321 40.0108 19.5165 40.281L19.9159 40.4028L19.6446 41.2916C19.5029 41.7559 19.7644 42.2473 20.2286 42.3889C20.3141 42.4151 20.4005 42.4275 20.4854 42.4275C20.8619 42.4275 21.2103 42.1837 21.3259 41.8049L21.6031 40.8969C21.739 40.9206 21.8757 40.9338 22.0121 40.9338C22.3991 40.9338 22.7829 40.8389 23.1343 40.6519C23.6989 40.3514 24.1129 39.8488 24.2996 39.2371C24.6851 37.974 23.9713 36.6328 22.7083 36.2472L21.6018 35.9095C21.4391 35.8598 21.3055 35.7498 21.2256 35.5995C21.1457 35.4494 21.1289 35.277 21.1787 35.1143C21.2812 34.7784 21.6376 34.5883 21.974 34.6911L22.5268 34.8598L22.5271 34.86H22.5273L23.693 35.2159C23.6015 35.6555 23.8591 36.1007 24.2972 36.2345C24.7615 36.3761 25.2529 36.1147 25.3946 35.6504C25.5252 35.2222 25.4813 34.7685 25.2708 34.3732Z" fill="#0678E3"/>
<path d="M51.5128 46.1005L45.8873 34.1462C45.6805 33.7069 45.1566 33.5183 44.7178 33.7252C44.2785 33.9319 44.0901 34.4556 44.2967 34.8947L49.9222 46.849C50.0721 47.1672 50.3882 47.3539 50.7182 47.3539C50.8435 47.3539 50.9709 47.327 51.0918 47.27C51.531 47.0633 51.7194 46.5397 51.5128 46.1005Z" fill="#0678E3"/>
<path d="M47.5832 48.2022L41.9577 36.248C41.751 35.8087 41.227 35.6202 40.7881 35.8269C40.3489 36.0337 40.1604 36.5574 40.3671 36.9965L45.9926 48.9507C46.1423 49.269 46.4585 49.4557 46.7885 49.4557C46.9139 49.4557 47.0413 49.4287 47.1621 49.3718C47.6013 49.1651 47.7898 48.6413 47.5832 48.2022Z" fill="#0678E3"/>
</g>
<defs>
<clipPath id="clip0_13324_18072">
<rect width="60" height="60" fill="white"/>
</clipPath>
</defs>
</svg>
