<svg width="60" height="60" viewBox="0 0 60 60" fill="none" xmlns="http://www.w3.org/2000/svg">
<path d="M59.8393 12.3315C59.8274 12.303 50.1238 0.339 50.1238 0.339C50.1105 0.339 50.1105 0.339 50.096 0.3075C50.0155 0.2445 49.9323 0.153 49.8254 0.1215H49.8122C49.7027 0.0629998 49.5812 0 49.4598 0H10.6029C10.2518 0 9.94287 0.2445 9.79239 0.612L0.276175 12.3C0.276175 12.3 0.00820525 12.495 0.000284977 12.936C-0.0102754 13.5225 0.276175 13.71 0.276175 13.71L18.1602 35.703C18.1324 35.766 18.0942 35.826 18.0664 35.8575C16.4322 37.9425 15.1505 39.57 15.1505 41.166V57.3615C15.1505 58.803 16.1761 60 17.4592 60H36.0177C36.126 60 36.2329 60 36.3029 59.9685C38.4479 59.7555 40.0676 57.729 40.0676 55.2765C40.0676 54.8775 40.0122 54.4785 39.9317 54.0795C41.3085 53.313 42.2259 51.6855 42.2259 49.8765C42.2259 49.0185 42.0385 48.1905 41.6451 47.4825C42.2946 46.6245 42.6562 45.519 42.6562 44.385C42.6562 43.128 42.2391 41.991 41.5223 41.256C41.9566 40.644 42.4147 39.6285 42.4147 38.0955C42.4147 37.266 42.2101 36.4995 41.8589 35.8245L59.838 13.7085C59.8393 13.71 60.201 13.146 59.8393 12.3315ZM47.3807 2.085L39.7429 11.4705L32.1038 2.085H47.3807ZM30.0657 33.741C30.3231 32.331 30.5633 30.1815 30.3759 27.7605C30.0115 23.0985 28.0011 19.8765 25.3808 19.7535C24.3829 19.6935 23.6674 19.785 23.142 19.908L21.55 14.0505H38.514L33.1849 33.741H30.0657ZM37.6652 11.964H22.3975L30.0234 2.5755L37.6652 11.964ZM20.3475 11.4435L12.7348 2.085H27.9457L20.3475 11.4435ZM10.6306 2.607L18.2407 11.964H3.03243L10.6306 2.607ZM3.03243 14.0505H19.6452L21.657 21.4095V21.441C22.0609 23.4045 22.6021 27.054 22.3315 28.404C21.9249 30.4305 20.6973 32.361 19.3759 34.14L3.03243 14.0505ZM39.7706 48.0675C40.1878 48.558 40.4175 49.2015 40.4175 49.8765C40.4175 51.105 39.6347 52.2075 38.5549 52.452C38.2724 52.5465 38.044 52.7595 37.9212 53.067C37.7998 53.343 37.813 53.679 37.9463 53.988C38.1509 54.387 38.2447 54.8145 38.2447 55.2765C38.2447 56.655 37.3404 57.792 36.1247 57.915C36.1115 57.915 36.0309 57.915 36.0309 57.915H17.4579C17.1899 57.915 16.9602 57.6675 16.9602 57.3615V41.166C16.9602 40.368 18.2671 38.709 19.4142 37.239C21.2253 34.9365 23.4641 32.0535 24.099 28.8645C24.4502 27.084 23.909 23.619 23.5987 21.9015C23.9776 21.8385 24.5307 21.7785 25.3122 21.807C26.9187 21.87 28.2942 24.4455 28.5661 27.945C28.809 30.9795 28.2677 33.5265 28.0381 34.506C27.9575 34.8135 28.0275 35.1495 28.1872 35.3985C28.3641 35.643 28.6321 35.826 28.9172 35.826H38.9047C39.7007 35.826 40.5904 36.8085 40.5904 38.097C40.5904 39.4755 40.0795 40.0605 39.8498 40.2735C39.5132 40.5495 39.3363 41.0115 39.3773 41.4705C39.405 41.9325 39.6597 42.36 40.0241 42.576C40.4161 42.789 40.8478 43.4025 40.8478 44.385C40.8478 45.243 40.4967 46.0125 39.8881 46.5015C39.6861 46.683 39.5515 46.9605 39.5264 47.268C39.5145 47.5455 39.5937 47.85 39.7706 48.0675ZM40.6062 34.3245C40.0954 33.957 39.5277 33.741 38.906 33.741H35.0858L40.4175 14.0505H57.0857L40.6062 34.3245ZM41.822 11.964L49.4598 2.5755L57.0857 11.964H41.822Z" fill="#077CEA"/>
<path d="M9.01167 39.3252C7.01312 39.3252 5.37891 41.1657 5.37891 43.4652V55.8567C5.38023 58.1592 7.01312 59.9997 9.01167 59.9997C11.0208 59.9997 12.655 58.1592 12.655 55.8567V43.4652C12.655 41.1657 11.0208 39.3252 9.01167 39.3252ZM10.8333 55.8567C10.8333 56.9937 10.0228 57.9147 9.01167 57.9147C8.01108 57.9147 7.18737 56.9937 7.18737 55.8567V43.4652C7.18737 42.3312 8.01108 41.4117 9.01167 41.4117C10.0228 41.4117 10.8333 42.3327 10.8333 43.4652V55.8567Z" fill="#077CEA"/>
</svg>
