<svg width="165" height="198" viewBox="0 0 165 198" fill="none" xmlns="http://www.w3.org/2000/svg">
<g clip-path="url(#clip0_13324_17851)">
<path d="M89.5618 34.149H41.8379V47.1988H89.5618V34.149Z" fill="#42423E"/>
<path d="M89.561 34.149H81.7852V47.1988H89.561V34.149Z" fill="#30302B"/>
<path d="M66.1535 185.423C66.1026 185.424 66.0512 185.423 65.9987 185.421C63.9427 185.318 63.3493 182.61 63.3493 180.568C63.3493 138.801 63.3493 97.0345 63.3488 55.2673C63.3488 53.1952 65.2948 47.7484 68.1017 51.4561C68.9095 52.5231 68.9429 53.9622 68.9429 55.2966C68.9429 97.0009 68.9423 138.705 68.9423 180.409C68.9423 182.535 68.2264 185.391 66.1535 185.423Z" fill="#F4E782"/>
<path d="M68.1017 51.4566C66.8913 49.858 65.8412 49.9616 65.0383 50.7622C65.2423 50.944 65.4512 51.1734 65.6656 51.4566C66.4734 52.5236 66.5068 53.9627 66.5068 55.2971C66.5068 97.0014 66.5063 138.706 66.5063 180.41C66.5063 182.073 66.0676 184.183 64.884 185.038C65.1958 185.261 65.5644 185.399 65.9987 185.421C66.0512 185.423 66.1026 185.424 66.1535 185.423C68.2264 185.39 68.9429 182.535 68.9429 180.409C68.9429 138.705 68.9434 97.0009 68.9434 55.2966C68.9434 53.9627 68.9101 52.5236 68.1017 51.4566Z" fill="#EAD453"/>
<path d="M71.029 55.8949C70.8556 55.9047 70.6817 55.9074 70.5121 55.9085C67.8004 55.9275 65.0887 55.9459 62.3769 55.9649C61.4821 55.9709 60.4982 55.9454 59.8304 55.3547C59.139 54.7428 59.0193 53.7322 58.9454 52.816C58.8574 51.7278 58.772 50.6093 59.0887 49.5634C60.1749 45.9784 67.1249 47.5379 70.0308 47.5314C71.0416 47.5292 72.2005 47.5949 72.823 48.3847C73.2862 48.9727 73.2961 49.7837 73.2851 50.5306C73.272 51.4181 73.2594 52.3055 73.2463 53.193C73.2353 53.9605 73.1883 54.8149 72.6321 55.3492C72.2153 55.7501 71.623 55.8618 71.029 55.8949Z" fill="#51657A"/>
<path d="M89.6999 48.0136C89.3438 49.7717 87.9825 51.1213 86.1458 51.2819C86.0983 51.2863 86.0507 51.2895 86.0025 51.2922C83.3515 51.4333 80.6464 51.283 77.9899 51.283C72.323 51.2825 66.6556 51.2819 60.9882 51.2814C56.0575 51.2808 51.1274 51.2808 46.1967 51.2803C45.3523 51.2803 44.4761 51.2738 43.7103 50.9212C42.5858 50.4031 41.9 49.2108 41.679 48.0012C41.661 47.9019 41.6385 47.763 41.6167 47.597C41.4898 46.6467 41.3536 44.805 41.8393 44.3765C42.1455 44.1058 43.1886 44.2951 43.59 44.2951H45.7997C48.6323 44.2957 51.4654 44.2957 54.298 44.2962C59.9638 44.2968 65.629 44.2968 71.2953 44.2973C72.1321 44.2978 77.3543 44.2078 82.0153 44.1731C86.0332 44.1427 89.6342 44.1535 89.6517 44.2989C89.7994 45.5346 89.9471 46.7942 89.6999 48.0136Z" fill="#8FBBAF"/>
<path d="M89.6994 48.0136C89.3434 49.7717 87.982 51.1213 86.1454 51.2819C86.0978 51.2863 86.0502 51.2895 86.0021 51.2922C83.3511 51.4333 80.6459 51.283 77.9894 51.283C72.3226 51.2825 66.6552 51.2819 60.9878 51.2814C56.0571 51.2808 51.127 51.2808 46.1963 51.2803C45.3518 51.2803 44.4756 51.2738 43.7099 50.9212C42.5854 50.4031 41.8995 49.2108 41.6786 48.0012C41.6605 47.9019 41.6381 47.763 41.6162 47.597C44.8738 48.6011 47.7682 49.0947 51.2369 49.0871C57.4299 49.0752 63.6235 49.0627 69.817 49.0508C72.5649 49.0454 75.4002 49.0226 77.9282 47.9529C79.6702 47.2157 81.2399 45.8455 82.0143 44.1731C86.0322 44.1427 89.6332 44.1535 89.6507 44.2989C89.799 45.5346 89.9466 46.7942 89.6994 48.0136Z" fill="#69A894"/>
<path d="M161.021 35.0728L147.571 53.7126L104.53 35.4292L108.854 12.9131L161.021 35.0728Z" fill="#F4E782"/>
<path d="M161.021 35.0728L147.572 53.712L131.762 46.9959C132.176 46.6791 132.671 46.4784 133.267 46.4643C134.83 46.428 135.491 47.6762 137.184 47.4104C140.6 46.8744 143.589 44.2094 145.424 41.4369C147.632 38.1003 148.764 34.2109 150.169 30.4625L161.021 35.0728Z" fill="#EAD453"/>
<path d="M68.3937 178.101C68.3467 178.082 68.2996 178.061 68.2526 178.038C66.4039 177.141 66.9334 174.42 67.7434 172.543C84.3239 134.15 100.904 95.7559 117.484 57.3622C118.307 55.4571 122.258 51.2102 123.366 55.7147C123.685 57.0112 123.145 58.3473 122.615 59.5737C106.059 97.9094 89.5034 136.246 72.9475 174.581C72.1042 176.535 70.3124 178.88 68.3937 178.101Z" fill="#A6DDA4"/>
<path d="M123.366 55.7152C122.888 53.7733 121.882 53.4586 120.826 53.8807C120.941 54.1275 121.042 54.4199 121.126 54.7638C121.445 56.0602 120.905 57.3963 120.375 58.6228C103.819 96.9584 87.2637 135.295 70.7078 173.63C70.0477 175.159 68.8072 176.927 67.3792 177.251C67.5771 177.578 67.861 177.848 68.2515 178.038C68.2986 178.061 68.3456 178.082 68.3926 178.101C70.3113 178.88 72.1036 176.535 72.947 174.582C89.5029 136.246 106.058 97.9099 122.614 59.5742C123.145 58.3472 123.685 57.0117 123.366 55.7152Z" fill="#7FC67B"/>
<path d="M124.909 59.6904C124.746 59.6313 124.586 59.5662 124.429 59.5011C121.929 58.4596 119.428 57.4181 116.928 56.376C116.104 56.0326 115.209 55.6242 114.83 54.8208C114.437 53.9887 114.729 53.0128 115.024 52.1416C115.375 51.1066 115.74 50.045 116.446 49.2075C118.868 46.3363 124.638 50.4839 127.311 51.6127C128.241 52.0055 129.281 52.5181 129.539 53.4874C129.732 54.2089 129.419 54.9586 129.113 55.6404C128.748 56.4509 128.384 57.2618 128.02 58.0722C127.705 58.7736 127.323 59.5407 126.6 59.8146C126.058 60.0202 125.469 59.8922 124.909 59.6904Z" fill="#42423E"/>
<path d="M146.589 57.5596C145.148 59.9979 143.043 61.4452 141.253 60.9629C141.207 60.9504 141.161 60.9374 141.115 60.9217C138.589 60.0928 136.197 58.817 133.755 57.7798C128.547 55.5661 123.337 53.3523 118.128 51.1386C113.596 49.2123 109.064 47.2871 104.532 45.3609C103.756 45.0311 102.955 44.6796 102.474 43.8637C101.768 42.6655 101.893 40.6492 102.455 38.7896C102.501 38.6372 102.569 38.4251 102.653 38.1729C103.138 36.7299 104.179 33.977 104.897 33.5382C105.35 33.2604 106.189 33.9461 106.557 34.1028L108.589 34.9659C111.192 36.073 113.796 37.1791 116.4 38.2862C121.607 40.4994 126.815 42.7116 132.024 44.9253C132.793 45.253 137.65 47.1602 141.956 48.9292C145.669 50.4534 148.973 51.8752 148.897 52.0954C148.25 53.9642 147.588 55.8682 146.589 57.5596Z" fill="#6B7B8E"/>
<path d="M146.589 57.5596C145.148 59.9979 143.043 61.4451 141.253 60.9629C141.207 60.9504 141.161 60.9374 141.115 60.9217C138.589 60.0928 136.197 58.817 133.755 57.7798C128.547 55.566 123.337 53.3523 118.128 51.1385C113.596 49.2123 109.064 47.2871 104.532 45.3609C103.756 45.0311 102.955 44.6796 102.474 43.8637C101.768 42.6654 101.893 40.6491 102.455 38.7896C102.501 38.6372 102.569 38.4251 102.653 38.1729C105.012 40.9171 107.361 42.7707 110.553 44.1143C116.254 46.5152 121.955 48.915 127.656 51.3165C130.185 52.3818 132.806 53.4554 135.807 52.8744C137.875 52.4735 140.185 51.0783 141.956 48.9291C145.668 50.4534 148.972 51.8752 148.896 52.0954C148.25 53.9642 147.588 55.8682 146.589 57.5596Z" fill="#51657A"/>
<path d="M110.99 27.2138L113.314 14.8074L115.164 15.5934L110.99 27.2138Z" fill="#E2C73D"/>
<path d="M122.393 18.6641L115.146 31.7763L120.587 17.8971L122.393 18.6641Z" fill="#E2C73D"/>
<path d="M128.036 21.0612L123.564 29.0234L125.885 20.1472L128.036 21.0612Z" fill="#E2C73D"/>
<path d="M133.665 23.453L127.918 34.4051L131.696 22.616L133.665 23.453Z" fill="#E2C73D"/>
<path d="M141.137 26.6263L131.86 41.0848L138.574 25.5376L141.137 26.6263Z" fill="#E2C73D"/>
<path d="M148.291 29.6656L140.89 43.8893L145.63 28.5352L148.291 29.6656Z" fill="#E2C73D"/>
<path d="M153.363 31.8197L148.734 41.1868L151.675 31.1031L153.363 31.8197Z" fill="#E2C73D"/>
<path d="M158.443 33.9782L153.871 39.6897L156.373 33.0989L158.443 33.9782Z" fill="#E2C73D"/>
<path d="M108.639 152.456C107.325 153.114 105.907 152.714 104.61 152.305C98.1685 150.27 91.7267 148.237 85.2848 146.202C83.7435 145.715 82.0425 145.058 81.3342 143.516C81.2522 143.339 81.1838 143.152 81.1308 142.95C80.7392 141.481 81.2812 139.785 81.8112 138.241C82.7333 135.555 83.6489 132.89 84.5574 130.244C84.9402 129.129 85.3504 127.968 86.1276 127.129C86.9486 126.242 88.0671 125.838 88.9378 125.028C90.0738 123.969 90.6459 122.368 91.1617 120.86C94.393 111.406 97.5368 102.207 100.597 93.2536C101.216 91.4445 101.841 89.5367 101.539 87.7401C101.371 86.749 100.927 85.8523 100.814 84.8526C100.667 83.5735 101.073 82.2581 101.47 81.0017C102.149 78.8596 102.961 76.6578 104.289 74.8411C105.545 73.1242 107.272 72.0062 109.285 71.9596C110.371 71.9341 111.29 72.2965 112.321 72.514C113.213 72.7022 114.367 72.7299 114.905 71.7171C115.029 71.4844 115.823 69.4486 115.709 69.345L124.282 72.0599C124.307 72.0681 124.32 72.0719 124.32 72.0719C124.308 72.0681 124.291 72.093 124.27 72.1419C124.103 72.5248 123.687 74.3491 123.679 74.5932C123.671 74.8406 123.699 75.0565 123.754 75.2469C124.113 76.4668 125.655 76.6247 126.687 77.165C128.535 78.1316 129.923 79.7557 130.289 81.9901C130.637 84.1132 130.151 86.3633 129.532 88.4344C129.231 89.4417 128.926 90.4849 128.485 91.4391C128.128 92.2137 127.686 92.9308 127.102 93.527C126.337 94.3054 125.373 94.8245 124.651 95.6599C123.775 96.6743 123.346 98.044 122.942 99.3692C120.207 108.344 117.398 117.563 114.511 127.035C113.899 129.041 113.276 131.203 113.715 133.191C113.948 134.243 114.47 135.178 114.598 136.269C114.744 137.507 114.369 138.796 114 140.031C113.304 142.353 112.603 144.691 111.898 147.044C111.263 149.163 110.416 151.567 108.639 152.456Z" fill="#F4E782"/>
<path d="M124.36 74.1533C124.21 74.1549 124.062 74.1413 123.916 74.118C123.49 74.0486 123.077 73.8891 122.674 73.728C120.846 72.9973 118.947 72.4619 117.06 71.907C115.645 71.492 113.659 71.2295 113.804 69.4638C113.81 69.3889 113.82 69.3119 113.834 69.2316C114.032 68.0973 114.572 66.9419 114.925 65.844C115.416 64.3197 116.945 64.8318 118.055 65.1833C120.093 65.8288 122.113 66.5074 124.178 67.0634C124.299 67.096 124.418 67.128 124.539 67.1594C125.726 67.4697 127.509 68.1066 127.008 69.6634C126.567 71.0298 126.236 74.1375 124.36 74.1533Z" fill="#51657A"/>
<path d="M124.697 72.2775C124.701 72.2499 124.705 72.2227 124.708 72.1951C124.736 72.2037 124.75 72.2081 124.75 72.2081C124.737 72.2043 124.719 72.2292 124.697 72.2775Z" fill="#198C5B"/>
<path d="M108.639 152.456C107.325 153.114 105.907 152.714 104.61 152.305C98.1683 150.27 91.7264 148.237 85.2845 146.202C83.7433 145.715 82.0423 145.058 81.334 143.516C82.4935 143.507 83.6519 143.486 84.8098 143.343C90.9049 142.588 96.4646 138.472 100.525 133.352C104.586 128.231 107.355 122.138 109.997 116.09C113.537 107.989 116.928 99.7988 119.634 91.3702C121.332 86.0835 122.762 80.6985 123.754 75.2463C124.112 76.4663 125.654 76.6242 126.686 77.1644C128.534 78.1311 129.923 79.7552 130.288 81.9896C130.636 84.1127 130.15 86.3628 129.531 88.4339C129.23 89.4412 128.925 90.4844 128.485 91.4385C128.127 92.2132 127.686 92.9303 127.101 93.5264C126.336 94.3049 125.372 94.824 124.65 95.6594C123.774 96.6737 123.345 98.0434 122.941 99.3686C120.206 108.344 117.397 117.563 114.51 127.034C113.898 129.04 113.275 131.202 113.715 133.19C113.947 134.242 114.469 135.178 114.597 136.268C114.743 137.507 114.369 138.795 113.999 140.03C113.303 142.353 112.603 144.691 111.898 147.043C111.263 149.163 110.415 151.567 108.639 152.456Z" fill="#EAD453"/>
<path d="M124.36 74.1533C124.21 74.1549 124.062 74.1413 123.916 74.118C123.49 74.0486 123.077 73.8891 122.674 73.728C120.846 72.9973 118.947 72.4619 117.06 71.907C115.645 71.492 113.659 71.2294 113.804 69.4638C115.113 70.2145 116.443 70.7483 117.894 71.2186C118.925 71.5527 120.01 71.8912 121.076 71.6954C122.554 71.4247 123.702 70.119 124.054 68.6702C124.181 68.1423 124.218 67.6021 124.179 67.0629C124.299 67.0954 124.419 67.1274 124.54 67.1589C125.727 67.4692 127.509 68.106 127.008 69.6628C126.567 71.0298 126.236 74.1375 124.36 74.1533Z" fill="#3C5368"/>
<g opacity="0.39">
<path d="M107.536 76.4354C105.799 78.2174 105.352 81.324 104.722 83.5421C104.538 84.1919 104.39 84.9752 104.884 85.4846C105.347 85.9625 106.169 85.9316 106.76 85.643C108.738 84.6758 110.897 83.6299 112.909 82.6042C115.069 81.503 116.35 79.5735 114.905 77.3098C113.766 75.5268 111.423 74.6209 109.381 75.2827C108.637 75.5235 108.034 75.9255 107.536 76.4354Z" fill="white"/>
</g>
<path d="M88.2351 71.4162L87.4386 80.7533L99.3348 81.7515L100.131 72.4144L88.2351 71.4162Z" fill="#F4E782"/>
<path d="M100.132 72.4077L99.3359 81.7449L94.4512 81.3354C96.0417 78.9144 96.908 76.2678 97.0333 73.6233C97.0546 73.1791 96.9808 72.6713 96.884 72.1354L100.132 72.4077Z" fill="#EAD453"/>
<path d="M73.3565 75.5251C73.2964 76.2509 73.9489 76.8866 74.6637 77.0553C75.378 77.224 76.1257 77.0374 76.8252 76.815C79.2903 76.0295 81.5973 74.7667 83.5953 73.135C85.2361 71.7946 88.026 69.4225 88.2065 67.1523C88.3695 65.104 85.9148 63.5537 84.2762 64.8897C82.6589 66.209 81.9309 68.7216 80.6434 70.3457C78.7751 72.7038 76.2208 74.5492 73.3565 75.5251Z" fill="#3C5368"/>
<path d="M105.27 66.2123C104.957 67.1882 104.53 68.1255 104.081 69.0466C103.711 69.8044 103.361 70.5807 102.897 71.2121C102.278 72.0551 101.456 72.6409 100.117 72.5845C97.9838 72.4944 95.8753 72.3881 93.7401 72.2352C91.9259 72.1055 90.0925 71.9411 88.2083 71.7242C87.9272 71.2256 87.5903 70.7532 87.2069 70.3051C84.3639 66.9766 78.9957 65.0108 75.1589 64.0908C74.182 63.8564 73.3042 63.6899 72.5932 63.5863C71.8701 63.4805 71.3543 62.835 71.4162 62.1125L71.7722 57.9339C71.816 57.4208 72.2508 57.028 72.7698 57.0324C73.7439 57.04 74.7744 57.0362 75.7594 57.0427C77.0163 57.0508 78.1988 57.0736 79.0952 57.1544C84.6401 57.654 90.2167 57.8699 95.7348 58.6326C95.7572 58.6353 95.7791 58.6386 95.8015 58.6418C96.3818 58.7221 96.961 58.8089 97.5397 58.9006C98.1566 58.9988 98.7719 59.1035 99.3867 59.2152C101.314 59.5646 103.316 59.6633 104.717 61.18C106.011 62.579 105.808 64.5356 105.27 66.2123Z" fill="#51657A"/>
<path d="M75.7601 57.0416L75.159 64.0897C74.1822 63.8553 73.3043 63.6888 72.5933 63.5852C71.8702 63.4794 71.3545 62.8339 71.4163 62.1114L71.7723 57.9328C71.8161 57.4197 72.2509 57.0269 72.77 57.0313C73.7446 57.0389 74.775 57.0356 75.7601 57.0416Z" fill="#30302B"/>
<path d="M99.5437 85.4124L99.5421 85.4341C98.067 101.888 96.5919 118.342 95.1168 134.797C94.9472 136.686 94.7717 138.602 94.1011 140.378C93.4306 142.154 92.1906 143.804 90.4317 144.548C88.8461 145.218 87.0483 145.088 85.3304 144.946C80.951 144.584 76.5711 144.222 72.1918 143.86C70.5673 143.725 68.8571 143.562 67.522 142.635C66.6655 142.04 66.0496 141.179 65.652 140.215C65.3834 139.564 65.2139 138.867 65.1362 138.172C64.9432 136.447 65.2445 134.709 65.5453 132.998C66.8799 125.408 68.2139 117.818 69.5484 110.228C69.9351 108.03 70.3475 105.765 71.577 103.896C72.911 101.868 75.0544 100.534 76.8856 98.933C79.9244 96.2761 82.1827 92.7512 83.3182 88.8949C83.7935 87.2806 84.1676 85.6581 84.6204 84.1604C85.2702 82.0128 86.0846 80.1229 87.5947 78.8894L99.4945 79.8875C100.154 81.6044 99.7012 83.6722 99.5437 85.4124Z" fill="#8FBBAF"/>
<path d="M105.27 66.2123C104.957 67.1882 104.53 68.1255 104.081 69.0466C103.711 69.8044 103.361 70.5807 102.897 71.2121C102.278 72.0551 101.456 72.6409 100.117 72.5845C97.9838 72.4944 95.8754 72.3881 93.7401 72.2351C91.9259 72.1055 90.0926 71.9411 88.2084 71.7242C87.9272 71.2256 87.5903 70.7532 87.2069 70.3051C88.2012 70.3935 89.4001 70.8535 90.336 70.9349C91.6388 71.0477 92.9509 71.0466 94.2526 70.9284C96.2949 70.7434 98.5187 70.1342 99.6197 68.4185C100.219 67.4844 100.396 66.3333 100.326 65.2288C100.176 62.8768 99.0137 60.7992 97.5403 58.9011C98.1572 58.9993 98.7725 59.104 99.3873 59.2157C101.314 59.5651 103.317 59.6638 104.718 61.1805C106.011 62.579 105.808 64.5356 105.27 66.2123Z" fill="#3C5368"/>
<g opacity="0.49">
<path d="M73.8829 104.717C72.5894 106.69 71.9658 109.087 72.1348 111.434C72.1644 111.84 72.2705 112.319 72.6523 112.47C73.0986 112.646 73.5476 112.245 73.8588 111.882C75.9076 109.495 77.9559 107.107 80.0048 104.719C80.5632 104.068 81.1539 103.331 81.1255 102.477C81.0609 100.519 79.0258 100.454 77.7536 101.137C76.1964 101.973 74.846 103.248 73.8829 104.717Z" fill="white"/>
</g>
<g opacity="0.49">
<path d="M70.0523 119.574C70.0201 119.923 69.9894 120.283 70.1016 120.615C70.2137 120.946 70.5085 121.244 70.8607 121.246C71.3721 121.248 71.6757 120.693 71.8512 120.216C72.1816 119.319 72.4687 118.407 72.7116 117.483C72.9314 116.647 73.0572 115.612 72.3933 115.053C70.0354 113.068 70.1256 118.773 70.0523 119.574Z" fill="white"/>
</g>
<path d="M99.5416 85.4335C98.0665 101.888 96.5914 118.342 95.1163 134.796C94.9467 136.686 94.7712 138.601 94.1006 140.377C93.4301 142.153 92.1902 143.804 90.4312 144.547C88.8456 145.218 87.0478 145.088 85.3299 144.945C80.9505 144.583 76.5706 144.222 72.1913 143.859C70.5669 143.725 68.8566 143.561 67.5215 142.634C66.665 142.04 66.0491 141.179 65.6515 140.214C70.0615 139.817 74.7329 140.313 78.6195 138.243C84.1786 135.282 85.9572 128.343 87.0095 122.172C88.7898 111.736 90.1008 101.222 90.9382 90.6704C91.2374 86.8992 91.6257 83.056 91.769 79.2393L99.4945 79.8869C100.156 81.6114 99.698 83.689 99.5416 85.4335Z" fill="#69A894"/>
<path d="M90.0596 143.449C89.4076 144.758 88.0315 145.282 86.7462 145.729C80.364 147.94 73.9817 150.151 67.6 152.363C66.073 152.892 64.3145 153.38 62.8143 152.569C62.6414 152.476 62.473 152.367 62.3089 152.238C61.9064 151.923 61.5716 151.525 61.2861 151.077C60.7173 150.187 60.341 149.099 60.0008 148.067C59.1115 145.371 58.2293 142.694 57.3531 140.038C55.832 135.425 54.6288 130.686 53.292 126.019C51.3482 119.227 49.4186 112.432 47.5431 105.621C45.7224 99.0138 42.2794 91.0805 44.0148 84.2184C44.6083 81.8712 46.621 80.098 45.8504 77.5327C45.1579 75.2262 42.9674 73.5099 42.776 71.0791C42.5797 68.5795 43.7775 67.0899 45.2941 64.8952C46.6659 62.9098 49.1544 62.6901 51.8159 63.2852C54.8196 63.9567 58.0433 65.6655 60.1315 67.0466C64.2008 69.7382 67.3763 73.856 68.7639 78.5221C69.4733 80.9078 69.3639 83.3472 69.9447 85.7443C70.5174 88.1073 71.5347 90.3346 72.3836 92.6053C73.3604 95.2172 74.3482 97.8253 75.3392 100.432C79.1317 110.407 83.0768 120.327 86.8195 130.321C87.67 132.592 88.526 134.879 89.3869 137.18C90.1624 139.252 90.9407 141.68 90.0596 143.449Z" fill="#A6DDA4"/>
<path d="M90.0596 143.449C89.4076 144.758 88.0315 145.282 86.7462 145.729C80.364 147.94 73.9817 150.151 67.6 152.363C66.073 152.892 64.3145 153.38 62.8143 152.569C62.6415 152.476 62.473 152.367 62.3089 152.238C61.9064 151.923 61.5716 151.525 61.2861 151.077C64.5579 149.538 67.1778 147.388 69.0483 142.919C69.0483 142.919 69.0483 142.919 69.0483 142.918C71.5347 136.978 71.2815 130.275 70.414 123.902C69.2622 115.436 67.1067 107.139 64.9567 98.8663C63.079 91.6441 61.2019 84.4213 59.3243 77.1986C58.0898 72.4483 56.6721 67.3954 52.9398 64.1759C52.5788 63.864 52.1987 63.5727 51.8153 63.2858C54.8191 63.9573 58.0428 65.666 60.131 67.0471C64.2002 69.7388 67.3758 73.8565 68.7634 78.5227C69.4727 80.9084 69.3634 83.3478 69.9442 85.7449C70.5169 88.1078 71.5342 90.3352 72.383 92.6059C73.3599 95.2178 74.3476 97.8259 75.3387 100.432C79.1312 110.408 83.0763 120.328 86.819 130.321C87.6695 132.593 88.5254 134.879 89.3863 137.18C90.1624 139.252 90.9407 141.68 90.0596 143.449Z" fill="#7FC67B"/>
<path d="M46.5571 64.6473C46.556 64.6484 43.7524 69.243 43.7496 69.2479C43.0659 70.3686 42.152 70.4863 41.2578 70.2183C40.4248 69.9688 39.6093 69.3846 39.0131 68.9658C37.911 68.1917 37.8596 67.1101 38.2715 65.9492C38.7653 64.5557 39.9265 63.0498 40.736 61.8288C40.8475 61.6601 40.9526 61.4968 41.0483 61.34C42.8149 58.4449 48.1859 61.9763 46.5571 64.6473Z" fill="#42423E"/>
<path d="M46.5571 64.6473C46.556 64.6484 43.7524 69.243 43.7497 69.2479C43.066 70.3686 42.152 70.4863 41.2578 70.2183C41.1511 69.9162 41.3026 69.5766 41.4706 69.2972C42.2264 68.0458 43.4292 66.9251 43.468 65.467C43.4942 64.4705 42.9364 63.5283 42.1936 62.8562C41.7719 62.4748 41.2638 62.1135 40.7355 61.8288C40.847 61.6601 40.9521 61.4968 41.0478 61.34C42.8149 58.4449 48.1859 61.9763 46.5571 64.6473Z" fill="#30302B"/>
<g opacity="0.29">
<path d="M46.0717 89.6951C46.3167 92.4089 47.3171 95.2102 48.1769 97.4559C48.3601 97.9349 48.5625 98.4399 48.9759 98.7486C51.4339 100.584 52.4042 95.336 52.6957 93.9522C53.2886 91.1401 54.9398 87.1108 54.4771 84.1501C53.9985 81.0891 50.986 80.4484 48.7375 82.2624C46.3747 84.1691 45.8185 86.8852 46.0717 89.6951Z" fill="white"/>
</g>
<g opacity="0.29">
<path d="M52.1446 110.179C52.4657 110.626 52.8146 110.904 53.1668 110.933C53.7351 110.978 54.2487 110.531 54.4647 110.007C54.6808 109.484 54.6655 108.899 54.6469 108.333C54.6048 107.054 54.5626 105.774 54.5205 104.495C54.4844 103.398 54.3258 101.639 52.9333 101.389C49.5231 100.776 50.4469 107.819 52.1446 110.179Z" fill="white"/>
</g>
<path d="M129.266 101.046C126.449 128.616 123.65 156.185 120.957 183.764C120.355 189.939 116.688 192.907 111.566 194.174C108.932 194.826 105.912 195.027 102.727 194.982C89.8978 194.802 77.1853 195.183 64.3562 195.007C59.769 194.945 56.53 193.889 54.2236 192.051C50.6712 189.22 49.3328 184.532 48.6957 178.753C46.5347 159.156 45.4184 139.435 43.4139 119.811C42.775 113.556 42.1357 107.301 41.4968 101.046H129.266V101.046Z" fill="#6B7B8E"/>
<path d="M129.266 101.046C126.449 128.616 123.65 156.185 120.958 183.764C120.355 189.939 116.688 192.907 111.567 194.174C108.932 194.826 105.912 195.027 102.727 194.982C89.8978 194.802 77.1853 195.183 64.3563 195.007C59.7691 194.945 56.5301 193.889 54.2236 192.051C54.2543 192.047 54.2843 192.043 54.315 192.04C56.8763 191.74 59.4655 192.164 62.046 192.279C75.6265 192.885 88.1504 184.714 95.2584 174.49C102.366 164.265 105.095 152.21 107.702 140.439C110.603 127.34 113.98 114.227 116.498 101.046H129.266V101.046Z" fill="#51657A"/>
<g opacity="0.16">
<path d="M48.0193 129.169C48.1889 131.866 48.406 134.706 49.927 136.947C50.9044 138.387 52.4462 139.501 54.1817 139.728C55.9171 139.954 57.809 139.181 58.6797 137.675C59.6073 136.07 59.2704 134.079 59.0533 132.242C58.6737 129.034 58.7508 125.772 59.2814 122.584C59.6063 120.633 60.1012 118.693 60.1007 116.716C60.1001 114.738 59.5264 112.655 58.048 111.328C55.7175 109.236 49.2352 109.021 47.6561 112.269C46.5557 114.531 47.299 117.72 47.4494 120.11C47.6386 123.13 47.829 126.149 48.0193 129.169Z" fill="white"/>
</g>
<g opacity="0.16">
<path d="M50.2535 156.247C50.6593 157.821 51.3889 159.229 52.4374 160.192C53.2327 160.922 54.4988 161.454 55.934 161.504C57.3686 161.554 58.9416 161.063 59.6789 160.221C61.3712 158.291 60.5201 153.282 60.6864 150.881C60.8538 148.465 60.2516 146.348 57.7263 145.539C51.2899 143.478 48.8582 150.838 50.2535 156.247Z" fill="white"/>
</g>
<path d="M40.2914 102.923C39.9802 104.461 40.0015 106.87 40.0453 107.293C40.3647 110.381 41.2474 113.399 42.5399 116.221C45.0891 121.79 49.2557 126.636 54.292 130.147C63.3832 136.486 74.7951 138.808 85.9079 138.944C97.0064 139.079 108.518 137.013 117.553 130.619C126.588 124.225 132.563 112.841 130.24 102.078C130.091 101.392 129.682 100.547 128.982 100.641C128.178 100.749 128.137 101.876 128.277 102.668C130.165 113.38 123.659 124.359 114.389 130.166C105.119 135.973 93.6471 137.337 82.7055 136.635C73.156 136.023 63.4538 133.84 55.5696 128.459C47.686 123.079 41.8945 114.083 42.2046 104.597C42.2281 103.881 42.274 103.119 41.9136 102.498C41.0308 100.979 40.5479 101.654 40.2914 102.923Z" fill="#42423E"/>
<path d="M132.92 100.702C132.733 103.46 131.077 104.687 128.91 105.193C126.104 105.85 122.442 105.299 120.007 105.3C118.447 105.3 116.887 105.301 115.326 105.301C108.297 105.302 101.268 105.3 94.2383 105.3C77.6042 105.3 60.9712 105.29 44.3371 105.323C40.8843 105.33 38.178 104.87 37.8641 101.023C37.6929 98.92 37.9226 96.4117 39.7466 95.3257C40.7142 94.7501 41.9054 94.7333 43.0338 94.7339C58.4476 94.736 73.861 94.7393 89.2754 94.742C96.9823 94.7431 104.689 94.7442 112.396 94.7458C114.883 94.7463 117.37 94.7469 119.856 94.7474C121.223 94.7474 122.59 94.7474 123.957 94.748C126.482 94.7485 130.345 93.9397 132.013 96.3976C132.852 97.6365 133.02 99.2118 132.92 100.702Z" fill="#51657A"/>
<path d="M93.7264 140.352C93.5098 140.38 93.2889 140.398 93.0673 140.407C88.0388 140.615 83.0031 140.605 77.9751 140.377C76.5771 140.313 75.4504 139.583 75.2026 138.678C75.1605 138.527 75.1435 138.37 75.1545 138.212C75.1545 138.212 75.2775 136.269 75.2775 136.267C75.4159 134.216 78.7495 134.331 80.9171 134.435C84.1549 134.61 87.3939 134.61 90.6378 134.518C91.3428 134.498 92.0473 134.473 92.7512 134.445C92.9864 134.435 93.2216 134.425 93.4568 134.414C95.0248 134.343 96.355 135.159 96.4288 136.267L96.5519 138.212C96.6356 139.472 95.3 140.156 93.7264 140.352Z" fill="#F4E782"/>
<path d="M132.92 100.702C132.733 103.46 131.077 104.687 128.91 105.193C126.104 105.85 122.442 105.299 120.007 105.3C118.447 105.3 116.887 105.301 115.326 105.301C115.595 104.701 115.905 104.114 116.203 103.562C117.715 100.756 118.939 97.7976 119.855 94.7474C121.222 94.7474 122.589 94.7474 123.956 94.748C126.481 94.7485 130.344 93.9397 132.012 96.3976C132.852 97.6365 133.02 99.2118 132.92 100.702Z" fill="#3C5368"/>
<path d="M93.7259 140.352C93.5094 140.38 93.2884 140.397 93.0669 140.407C88.0383 140.615 83.0026 140.605 77.9746 140.377C76.5766 140.313 75.4499 139.583 75.2021 138.678C75.6485 138.703 76.1883 138.919 76.6789 139.001C79.3042 139.439 81.9755 139.513 84.6331 139.457C86.1519 139.425 87.6702 139.35 89.188 139.274C90.1451 139.226 91.1586 139.161 91.9446 138.617C92.69 138.101 93.1172 137.199 93.1544 136.298C93.1806 135.659 93.0264 135.025 92.7513 134.445C92.9865 134.435 93.2217 134.425 93.4568 134.414C95.0249 134.343 96.3551 135.159 96.4289 136.267L96.552 138.212C96.6351 139.472 95.2995 140.156 93.7259 140.352Z" fill="#EAD453"/>
<path d="M68.9433 196.876C68.9433 197.218 68.9226 197.608 68.6682 197.825C68.5381 197.936 68.3718 197.977 68.2017 197.991C68.1153 197.999 68.0278 197.999 67.9435 197.999H29.4285C29.0987 197.999 28.7175 197.974 28.5228 197.696C28.3937 197.511 28.3877 197.266 28.3866 197.037C28.3817 196.133 28.3778 195.231 28.3729 194.328C28.3505 189.77 28.3275 185.214 28.3051 180.657C28.2969 178.994 28.3959 178.09 30.1341 178.091C41.669 178.095 53.204 178.099 64.739 178.103C65.7859 178.103 66.8327 178.103 67.8795 178.104C68.2192 178.104 68.6135 178.132 68.8099 178.421C68.9362 178.608 68.9412 178.853 68.9412 179.081C68.9422 185.013 68.9428 190.944 68.9433 196.876Z" fill="#F4E782"/>
<path d="M68.9425 196.876C68.9425 197.218 68.9217 197.608 68.6674 197.825C68.5372 197.936 68.3709 197.977 68.2008 197.991C68.1144 197.999 68.0269 197.999 67.9427 197.999H29.4277C29.0979 197.999 28.7166 197.974 28.5219 197.696C28.3929 197.511 28.3868 197.266 28.3857 197.037C28.3808 196.133 28.377 195.231 28.3721 194.328C29.402 193.852 30.5527 193.57 31.6734 193.508C34.6958 193.339 37.6433 194.313 40.6246 194.821C47.8694 196.054 55.957 194.201 60.8237 188.895C63.4736 186.006 64.9033 181.997 64.7387 178.103C65.7856 178.103 66.8324 178.104 67.8792 178.104C68.2189 178.104 68.6132 178.132 68.8096 178.422C68.9359 178.608 68.9409 178.853 68.9409 179.082C68.9414 185.013 68.942 190.944 68.9425 196.876Z" fill="#EAD453"/>
<path d="M69.0157 178.334V182.253C67.4247 182.252 65.8331 182.252 64.242 182.251C52.2427 182.248 40.2428 182.245 28.2429 182.242C28.2385 181.441 28.2347 180.639 28.2309 179.838C28.2227 178.251 28.3217 177.39 30.067 177.39C41.6441 177.393 53.2217 177.397 64.7988 177.4C65.8495 177.401 66.9001 177.401 67.9508 177.401C68.2916 177.402 68.6875 177.429 68.8844 177.704C69.0108 177.882 69.0157 178.116 69.0157 178.334Z" fill="#8FBBAF"/>
<path d="M69.0156 178.334V182.253C67.4246 182.252 65.833 182.252 64.2419 182.251C64.6713 180.671 64.8649 179.026 64.7982 177.4C65.8489 177.401 66.8995 177.401 67.9502 177.401C68.2909 177.402 68.6869 177.429 68.8838 177.704C69.0107 177.882 69.0156 178.116 69.0156 178.334Z" fill="#69A894"/>
<path d="M34.1116 184.51C34.0028 184.765 34.0126 185.128 34.2658 185.244C34.6055 185.4 34.9473 184.959 35.3214 184.974C35.6961 184.989 36.0013 185.455 36.353 185.326C36.5526 185.253 36.6374 185.015 36.6374 184.804C36.6374 184.47 36.4804 184.139 36.2206 183.927C35.5386 183.367 34.4414 183.738 34.1116 184.51Z" fill="#E2C73D"/>
<path d="M61.9161 190.468C61.665 190.347 61.2997 190.337 61.1689 190.582C60.9939 190.91 61.42 191.272 61.3855 191.642C61.3511 192.012 60.8654 192.29 60.9764 192.645C61.0393 192.846 61.2751 192.943 61.4873 192.954C61.8236 192.972 62.1649 192.834 62.3925 192.588C62.9914 191.942 62.6758 190.836 61.9161 190.468Z" fill="#E2C73D"/>
<path d="M40.6628 187.258C40.851 187.595 40.7952 188.023 40.6174 188.365C40.3472 188.885 39.8019 189.254 39.2151 189.314C38.6282 189.373 38.0189 189.122 37.6475 188.667C37.5578 188.557 37.478 188.42 37.5053 188.282C37.5546 188.033 37.8887 187.971 38.1403 188.015C38.3919 188.06 38.6714 188.15 38.8869 188.013C39.0308 187.922 39.1013 187.754 39.1505 187.592C39.3529 186.933 40.2083 186.445 40.6628 187.258Z" fill="#E2C73D"/>
<path d="M46.56 186.343C46.799 187.529 44.9344 187.891 44.6561 186.757C44.3684 185.584 46.3116 185.11 46.56 186.343Z" fill="#E2C73D"/>
<path d="M57.2064 193.374C57.4454 194.56 55.5809 194.923 55.3025 193.788C55.0143 192.616 56.9576 192.141 57.2064 193.374Z" fill="#E2C73D"/>
<path d="M30.7927 189.877C30.9475 190.264 31.332 190.55 31.7499 190.589C31.9304 190.606 32.1218 190.577 32.27 190.473C32.5501 190.276 32.5966 189.877 32.5304 189.544C32.4609 189.194 32.2788 188.847 31.9654 188.673C31.1318 188.209 30.4963 189.137 30.7927 189.877Z" fill="#E2C73D"/>
<path d="M45.6758 192.697C45.8716 192.67 46.086 192.656 46.2534 192.76C46.4754 192.899 46.5334 193.213 46.4404 193.456C46.3474 193.699 46.138 193.881 45.9159 194.02C45.4931 194.284 44.9976 194.433 44.4977 194.446C44.2488 194.453 43.9912 194.423 43.7763 194.299C42.2771 193.435 45.2415 192.756 45.6758 192.697Z" fill="#E2C73D"/>
<path d="M35.3637 195.262C35.3642 195.262 35.3642 195.262 35.3637 195.262C35.6174 195.493 36.032 195.514 36.323 195.33C36.6134 195.146 36.7693 194.784 36.7277 194.444C36.6791 194.043 36.3323 193.678 35.9254 193.67C35.2018 193.657 34.8698 194.811 35.3637 195.262Z" fill="#E2C73D"/>
<path d="M65.4917 196.154C65.7455 196.385 66.1601 196.406 66.451 196.222C66.7415 196.038 66.8973 195.676 66.8558 195.336C66.8071 194.935 66.4603 194.57 66.0534 194.562C65.3298 194.548 64.9973 195.703 65.4917 196.154Z" fill="#E2C73D"/>
<path d="M53.4 189.23C53.4323 189.598 53.0702 189.868 52.7513 190.06C52.2284 190.374 51.5316 190.778 50.907 190.491C50.4421 190.277 50.3295 189.86 50.5499 189.414C50.9284 188.649 53.295 188.023 53.4 189.23Z" fill="#E2C73D"/>
<path d="M66.3168 187.519C65.9509 187.447 65.7901 187.028 65.6928 186.67C65.5336 186.085 65.3345 185.309 65.7863 184.793C66.1221 184.409 66.5575 184.418 66.9283 184.751C67.5655 185.325 67.5152 187.753 66.3168 187.519Z" fill="#E2C73D"/>
<path d="M59.3098 185.569C59.2612 185.93 58.9549 186.259 58.5879 186.283C58.0716 186.318 57.6291 185.802 57.1155 185.867C56.8727 185.898 56.6687 186.054 56.4543 186.17C55.7854 186.533 55.3872 186.01 55.694 185.407C55.863 185.076 56.3055 184.617 56.6391 184.434C57.517 183.953 59.4865 184.254 59.3098 185.569Z" fill="#E2C73D"/>
<path d="M17.4431 61.6316C20.0049 59.0909 20.0049 54.9714 17.4431 52.4306C14.8813 49.8898 10.7277 49.8898 8.16593 52.4306C5.60411 54.9714 5.60411 59.0908 8.16592 61.6316C10.7277 64.1724 14.8813 64.1724 17.4431 61.6316Z" fill="#BED9E5"/>
<path opacity="0.62" d="M13.9957 52.3652C14.7526 53.2304 12.6803 53.3557 11.1111 54.7064C9.54194 56.0571 9.07103 58.1222 8.31351 57.257C7.55655 56.3918 8.02418 54.3934 9.59335 53.0422C11.1625 51.6915 13.2387 51.5 13.9957 52.3652Z" fill="white"/>
<path d="M151.028 83.8408C153.59 81.3 153.59 77.1805 151.028 74.6397C148.466 72.0989 144.313 72.0989 141.751 74.6397C139.189 77.1805 139.189 81.3 141.751 83.8408C144.313 86.3815 148.466 86.3815 151.028 83.8408Z" fill="#BED9E5"/>
<path opacity="0.62" d="M147.582 74.5737C148.339 75.4389 146.266 75.5642 144.697 76.9149C143.128 78.2656 142.657 80.3307 141.899 79.4655C141.142 78.6003 141.61 76.6019 143.179 75.2507C144.748 73.9 146.825 73.7085 147.582 74.5737Z" fill="white"/>
<path d="M20.0091 87.4565C21.9852 85.4966 21.9852 82.3189 20.0091 80.3589C18.0329 78.399 14.8289 78.399 12.8528 80.3589C10.8766 82.3189 10.8766 85.4966 12.8528 87.4565C14.8289 89.4164 18.0329 89.4164 20.0091 87.4565Z" fill="#BED9E5"/>
<path opacity="0.62" d="M17.35 80.309C17.9342 80.9762 16.3355 81.0728 15.1251 82.1148C13.9147 83.1569 13.5515 84.7495 12.9674 84.0823C12.3833 83.4151 12.7442 81.8734 13.9546 80.8314C15.165 79.7893 16.7659 79.6418 17.35 80.309Z" fill="white"/>
<path d="M140.074 175.218C142.05 173.258 142.05 170.08 140.074 168.12C138.098 166.16 134.894 166.16 132.918 168.12C130.942 170.08 130.942 173.258 132.918 175.218C134.894 177.178 138.098 177.178 140.074 175.218Z" fill="#BED9E5"/>
<path opacity="0.62" d="M137.417 168.07C138.001 168.737 136.402 168.833 135.192 169.875C133.981 170.918 133.618 172.51 133.034 171.843C132.45 171.176 132.811 169.634 134.021 168.592C135.232 167.55 136.833 167.402 137.417 168.07Z" fill="white"/>
<path d="M149.967 113.335C151.943 111.375 151.943 108.198 149.967 106.238C147.991 104.278 144.787 104.278 142.811 106.238C140.834 108.198 140.834 111.375 142.811 113.335C144.787 115.295 147.991 115.295 149.967 113.335Z" fill="#BED9E5"/>
<path opacity="0.62" d="M147.309 106.187C147.893 106.854 146.294 106.951 145.084 107.993C143.874 109.035 143.51 110.628 142.926 109.96C142.342 109.293 142.703 107.752 143.913 106.71C145.124 105.668 146.725 105.52 147.309 106.187Z" fill="white"/>
<path d="M98.8076 16.4625C100.784 14.5025 100.784 11.3249 98.8076 9.36492C96.8315 7.40499 93.6275 7.40499 91.6514 9.36492C89.6752 11.3249 89.6752 14.5025 91.6514 16.4625C93.6275 18.4224 96.8315 18.4224 98.8076 16.4625Z" fill="#BED9E5"/>
<path opacity="0.62" d="M96.1486 9.3139C96.7327 9.98112 95.134 10.0777 93.9237 11.1197C92.7133 12.1618 92.3501 13.7544 91.766 13.0872C91.1818 12.42 91.5428 10.8783 92.7532 9.83628C93.9636 8.79423 95.565 8.64668 96.1486 9.3139Z" fill="white"/>
<path d="M24.4264 163.037C27.2211 163.037 29.4867 160.79 29.4867 158.019C29.4867 155.247 27.2211 153 24.4264 153C21.6317 153 19.3661 155.247 19.3661 158.019C19.3661 160.79 21.6317 163.037 24.4264 163.037Z" fill="#BED9E5"/>
<path opacity="0.62" d="M25.3447 154.419C25.9288 155.087 24.3301 155.183 23.1197 156.225C21.9093 157.267 21.5462 158.86 20.962 158.193C20.3779 157.525 20.7389 155.984 21.9492 154.942C23.1596 153.9 24.7605 153.752 25.3447 154.419Z" fill="white"/>
<path d="M7.60841 76.7524C8.51238 74.7655 7.62117 72.428 5.61784 71.5315C3.61451 70.6349 1.25768 71.5188 0.353704 73.5057C-0.550267 75.4926 0.34094 77.8301 2.34427 78.7266C4.3476 79.6232 6.70444 78.7393 7.60841 76.7524Z" fill="#BED9E5"/>
<path opacity="0.62" d="M4.702 72.3018C5.16143 72.8269 3.90401 72.9023 2.95234 73.722C2.00066 74.5416 1.71461 75.7942 1.25518 75.2696C0.79575 74.7445 1.07961 73.5321 2.03129 72.713C2.98351 71.8928 4.24257 71.7768 4.702 72.3018Z" fill="white"/>
<path d="M40.6293 172.589C42.1834 171.048 42.1834 168.549 40.6293 167.008C39.0752 165.466 36.5555 165.466 35.0014 167.008C33.4473 168.549 33.4473 171.048 35.0014 172.589C36.5555 174.131 39.0752 174.131 40.6293 172.589Z" fill="#BED9E5"/>
<path opacity="0.62" d="M38.539 166.968C38.9985 167.494 37.7411 167.569 36.7894 168.389C35.8377 169.208 35.5516 170.461 35.0922 169.936C34.6328 169.411 34.9166 168.199 35.8683 167.38C36.82 166.56 38.0796 166.444 38.539 166.968Z" fill="white"/>
<path d="M163.833 91.7182C165.387 90.1769 165.387 87.6779 163.833 86.1365C162.278 84.5952 159.759 84.5952 158.205 86.1365C156.651 87.6779 156.651 90.1769 158.205 91.7182C159.759 93.2595 162.278 93.2595 163.833 91.7182Z" fill="#BED9E5"/>
<path opacity="0.62" d="M161.742 86.0964C162.202 86.6215 160.944 86.6969 159.993 87.5165C159.041 88.3362 158.755 89.5887 158.296 89.0636C157.836 88.5385 158.12 87.3261 159.072 86.507C160.023 85.6879 161.284 85.5713 161.742 86.0964Z" fill="white"/>
<path d="M77.9643 6.73872C79.5184 5.19738 79.5184 2.69837 77.9643 1.15703C76.4102 -0.384305 73.8905 -0.384305 72.3364 1.15703C70.7823 2.69837 70.7823 5.19738 72.3364 6.73872C73.8905 8.28006 76.4102 8.28006 77.9643 6.73872Z" fill="#BED9E5"/>
<path opacity="0.62" d="M75.8731 1.1164C76.3326 1.64149 75.0752 1.71689 74.1235 2.53654C73.1718 3.35618 72.8858 4.6087 72.4263 4.08415C71.9669 3.55906 72.2508 2.34668 73.2024 1.52757C74.1541 0.707929 75.4137 0.591844 75.8731 1.1164Z" fill="white"/>
</g>
<defs>
<clipPath id="clip0_13324_17851">
<rect width="165" height="198" fill="white"/>
</clipPath>
</defs>
</svg>
