<svg width="58" height="60" viewBox="0 0 58 60" fill="none" xmlns="http://www.w3.org/2000/svg">
<path d="M21.5 54.375H14C13.7514 54.375 13.5129 54.4738 13.3371 54.6496C13.1613 54.8254 13.0625 55.0639 13.0625 55.3125C13.0625 55.5611 13.1613 55.7996 13.3371 55.9754C13.5129 56.1512 13.7514 56.25 14 56.25H21.5C21.7486 56.25 21.9871 56.1512 22.1629 55.9754C22.3387 55.7996 22.4375 55.5611 22.4375 55.3125C22.4375 55.0639 22.3387 54.8254 22.1629 54.6496C21.9871 54.4738 21.7486 54.375 21.5 54.375Z" fill="#0678E3"/>
<path d="M53.8438 18.75H34.625V4.21875C34.624 3.3488 34.278 2.51476 33.6629 1.89962C33.0477 1.28447 32.2137 0.938462 31.3438 0.9375H4.15625C3.2863 0.938462 2.45226 1.28447 1.83712 1.89962C1.22197 2.51476 0.875962 3.3488 0.875 4.21875V55.7812C0.875962 56.6512 1.22197 57.4852 1.83712 58.1004C2.45226 58.7155 3.2863 59.0615 4.15625 59.0625H31.3438C32.2137 59.0615 33.0477 58.7155 33.6629 58.1004C34.278 57.4852 34.624 56.6512 34.625 55.7812V42.1875H53.8438C54.7137 42.1865 55.5477 41.8405 56.1629 41.2254C56.778 40.6102 57.124 39.7762 57.125 38.9062V22.0312C57.124 21.1613 56.778 20.3273 56.1629 19.7121C55.5477 19.097 54.7137 18.751 53.8438 18.75ZM22.1738 2.8125L21.7051 4.6875H13.7949L13.3262 2.8125H22.1738ZM32.75 55.7812C32.7497 56.1541 32.6014 56.5116 32.3378 56.7753C32.0741 57.0389 31.7166 57.1872 31.3438 57.1875H4.15625C3.78338 57.1872 3.42588 57.0389 3.16222 56.7753C2.89857 56.5116 2.75031 56.1541 2.75 55.7812V4.21875C2.75031 3.84588 2.89857 3.48838 3.16222 3.22472C3.42588 2.96107 3.78338 2.81281 4.15625 2.8125H11.3926L12.1531 5.85234C12.2038 6.05516 12.3209 6.23522 12.4856 6.36389C12.6504 6.49256 12.8534 6.56247 13.0625 6.5625H22.4375C22.6466 6.56247 22.8496 6.49256 23.0144 6.36389C23.1791 6.23522 23.2962 6.05516 23.3469 5.85234L24.1074 2.8125H31.3438C31.7166 2.81281 32.0741 2.96107 32.3378 3.22472C32.6014 3.48838 32.7497 3.84588 32.75 4.21875V55.7812ZM34.625 32.8125H37.4375V36.5625H34.625V32.8125ZM55.25 38.9062C55.2497 39.2791 55.1014 39.6366 54.8378 39.9003C54.5741 40.1639 54.2166 40.3122 53.8438 40.3125H34.625V38.4375H38.375C38.6236 38.4375 38.8621 38.3387 39.0379 38.1629C39.2137 37.9871 39.3125 37.7486 39.3125 37.5V31.875C39.3125 31.6264 39.2137 31.3879 39.0379 31.2121C38.8621 31.0363 38.6236 30.9375 38.375 30.9375H34.625V28.125H55.25V38.9062ZM55.25 26.25H34.625V24.375H55.25V26.25ZM55.25 22.5H34.625V20.625H53.8438C54.2166 20.6253 54.5741 20.7736 54.8378 21.0372C55.1014 21.3009 55.2497 21.6584 55.25 22.0312V22.5Z" fill="#0678E3"/>
<path d="M52.4375 30.9375H44C43.7514 30.9375 43.5129 31.0363 43.3371 31.2121C43.1613 31.3879 43.0625 31.6264 43.0625 31.875C43.0625 32.1236 43.1613 32.3621 43.3371 32.5379C43.5129 32.7137 43.7514 32.8125 44 32.8125H52.4375C52.6861 32.8125 52.9246 32.7137 53.1004 32.5379C53.2762 32.3621 53.375 32.1236 53.375 31.875C53.375 31.6264 53.2762 31.3879 53.1004 31.2121C52.9246 31.0363 52.6861 30.9375 52.4375 30.9375Z" fill="#0678E3"/>
<path d="M52.4375 33.75H44C43.7514 33.75 43.5129 33.8488 43.3371 34.0246C43.1613 34.2004 43.0625 34.4389 43.0625 34.6875C43.0625 34.9361 43.1613 35.1746 43.3371 35.3504C43.5129 35.5262 43.7514 35.625 44 35.625H52.4375C52.6861 35.625 52.9246 35.5262 53.1004 35.3504C53.2762 35.1746 53.375 34.9361 53.375 34.6875C53.375 34.4389 53.2762 34.2004 53.1004 34.0246C52.9246 33.8488 52.6861 33.75 52.4375 33.75Z" fill="#0678E3"/>
<path d="M52.4375 36.5625H48.6875C48.4389 36.5625 48.2004 36.6613 48.0246 36.8371C47.8488 37.0129 47.75 37.2514 47.75 37.5C47.75 37.7486 47.8488 37.9871 48.0246 38.1629C48.2004 38.3387 48.4389 38.4375 48.6875 38.4375H52.4375C52.6861 38.4375 52.9246 38.3387 53.1004 38.1629C53.2762 37.9871 53.375 37.7486 53.375 37.5C53.375 37.2514 53.2762 37.0129 53.1004 36.8371C52.9246 36.6613 52.6861 36.5625 52.4375 36.5625Z" fill="#0678E3"/>
<path d="M17.75 18.75C15.525 18.75 13.3499 19.4098 11.4998 20.646C9.64979 21.8821 8.20785 23.6391 7.35636 25.6948C6.50487 27.7505 6.28209 30.0125 6.71617 32.1948C7.15025 34.3771 8.22171 36.3816 9.79505 37.955C11.3684 39.5283 13.373 40.5998 15.5552 41.0338C17.7375 41.4679 19.9995 41.2451 22.0552 40.3936C24.1109 39.5422 25.8679 38.1002 27.104 36.2502C28.3402 34.4001 29 32.225 29 30C28.9967 27.0173 27.8103 24.1578 25.7013 22.0487C23.5922 19.9397 20.7327 18.7533 17.75 18.75ZM17.75 39.375C15.8958 39.375 14.0832 38.8252 12.5415 37.795C10.9998 36.7649 9.79821 35.3007 9.08863 33.5877C8.37906 31.8746 8.19341 29.9896 8.55514 28.171C8.91688 26.3525 9.80976 24.682 11.1209 23.3709C12.432 22.0598 14.1025 21.1669 15.921 20.8051C17.7396 20.4434 19.6246 20.6291 21.3377 21.3386C23.0507 22.0482 24.5149 23.2498 25.545 24.7915C26.5752 26.3332 27.125 28.1458 27.125 30C27.1222 32.4855 26.1336 34.8685 24.376 36.626C22.6185 38.3835 20.2355 39.3722 17.75 39.375Z" fill="#0678E3"/>
<path d="M22.7121 26.5246L16.7245 32.5122L13.625 30.1875C13.4261 30.0383 13.1761 29.9743 12.9299 30.0094C12.6838 30.0446 12.4617 30.1761 12.3125 30.375C12.1633 30.5739 12.0993 30.824 12.1344 31.0701C12.1696 31.3162 12.3011 31.5383 12.5 31.6875L16.25 34.5C16.4305 34.6354 16.6539 34.7012 16.879 34.6852C17.1041 34.6692 17.3159 34.5725 17.4754 34.413L24.0379 27.8505C24.2138 27.6746 24.3125 27.4362 24.3125 27.1875C24.3125 26.9389 24.2138 26.7004 24.0379 26.5246C23.8621 26.3488 23.6237 26.25 23.375 26.25C23.1264 26.25 22.8879 26.3488 22.7121 26.5246Z" fill="#0678E3"/>
</svg>
